<?xml version="1.0" encoding="UTF-8"?>
<svg id="illustrations" xmlns="http://www.w3.org/2000/svg" version="1.1" viewBox="0 0 1312 738">
  <!-- Generator: Adobe Illustrator 29.7.1, SVG Export Plug-In . SVG Version: 2.1.1 Build 8)  -->
  <defs>
    <style>
      .st0 {
        fill: #f6f2ff;
        stroke: #d4bbff;
      }

      .st0, .st1 {
        stroke-miterlimit: 10;
      }

      .st1 {
        fill: none;
        stroke: #a6c8ff;
      }
    </style>
  </defs>
  <g id="watsonx.data_-_light">
    <path class="st1" d="M843.1.4v737.6"/>
    <path class="st1" d="M780.1.4v737.6"/>
    <path class="st1" d="M717.2.4v737.6"/>
    <path class="st1" d="M654.2.4v737.6"/>
    <path class="st1" d="M717.2,62.8H0"/>
    <path class="st1" d="M717.3,311.7H0"/>
    <path class="st1" d="M843.1,62.8h-63.2"/>
    <path class="st1" d="M843.1,125.8H0"/>
    <path class="st1" d="M843.1,188.7H0"/>
    <path class="st1" d="M843.1,251.6H0"/>
    <path class="st0" d="M677.7,94.3c0,4.4,3.5,8,8,8s8-3.6,8-8-3.5-8-8-8-8,3.6-8,8Z"/>
    <path class="st0" d="M677.7,157.2c0,4.4,3.5,8,8,8s8-3.6,8-8-3.5-8-8-8-8,3.6-8,8Z"/>
    <path class="st0" d="M677.7,220.1c0,4.4,3.5,8.1,8,8.1s8-3.6,8-8.1-3.5-7.9-8-7.9-8,3.6-8,7.9Z"/>
    <path class="st0" d="M878.1,153.7c-5,0-9,4-9,9s4.1,9,9,9,9-4,9-9-4.1-9-9-9Z"/>
    <path class="st0" d="M913.1,118.7c-5,0-9,4-9,9s4.1,9,9,9,9-4,9-9-4.1-9-9-9Z"/>
    <path class="st0" d="M948.1,83.7c-5,0-9,4-9,9s4.1,9,9,9,9-4,9-9-4.1-9-9-9Z"/>
    <path class="st0" d="M981.1,48.7c-5,0-9,4-9,9s4.1,9,9,9,9-4,9-9-4.1-9-9-9Z"/>
    <path class="st0" d="M1018.1,13.7c-5,0-9,4-9,9s4.1,9,9,9,9-4,9-9-4.1-9-9-9Z"/>
    <circle id="circle" class="st1" cx="878.1" cy="188.7" r="35"/>
    <circle id="circle1" class="st1" cx="913.1" cy="188.7" r="70"/>
    <circle id="circle2" class="st1" cx="948.1" cy="188.7" r="105"/>
    <circle id="circle3" class="st1" cx="983.1" cy="188.7" r="140"/>
    <circle id="circle4" class="st1" cx="1018.1" cy="188.7" r="175"/>
  </g>
</svg>