<?xml version="1.0" encoding="UTF-8"?>
<svg xmlns="http://www.w3.org/2000/svg" version="1.1" viewBox="0 0 1312 738">
  <defs>
    <style>
      .cls-1 {
        fill: #d9fbfb;
        stroke: #03ddbd;
      }

      .cls-2 {
        fill: none;
        stroke: #a6c8ff;
        stroke-miterlimit: 10;
      }
    </style>
  </defs>
  <!-- Generator: Adobe Illustrator 28.7.1, SVG Export Plug-In . SVG Version: 1.2.0 Build 142)  -->
  <g>
    <g id="Layer_1">
      <path class="cls-2" d="M656,0v171.3s0,72,72.4,72h583.6"/>
      <path class="cls-2" d="M0,98.9h1016.5s72.5,1,72.5-73V0"/>
      <path class="cls-2" d="M-.6,315.2h1162s81.3.3,81.3-71.9v-45.9"/>
      <path class="cls-2" d="M0,171.3h1016.5s144.4.5,144.4-145.3V0"/>
      <path class="cls-2" d="M0,26h1160.3s82.3,0,82.3,80.9v631.1"/>
      <path class="cls-1" d="M1247.8,238.1c5.9,7.5-2.9,16.2-10.3,10.3-5.9-7.5,2.9-16.2,10.3-10.3Z"/>
      <line class="cls-2" x1="944.6" x2="944.6" y2="738"/>
      <line class="cls-2" x1="800.3" x2="800.3" y2="738"/>
      <line class="cls-2" x1="728.4" x2="728.4" y2="738"/>
      <line class="cls-2" x1="872.5" x2="872.5" y2="738"/>
      <line class="cls-2" x1="1016.5" x2="1016.5" y2="738"/>
      <path class="cls-1" d="M1021.7,20.8c5.9,7.5-2.9,16.2-10.3,10.3-5.9-7.5,2.9-16.2,10.3-10.3Z"/>
      <path class="cls-1" d="M1166.1,20.8c5.9,7.5-2.9,16.2-10.3,10.3-5.9-7.5,2.9-16.2,10.3-10.3Z"/>
      <path class="cls-1" d="M877.6,93.7c5.9,7.5-2.9,16.2-10.3,10.3-5.9-7.5,2.9-16.2,10.3-10.3Z"/>
      <path class="cls-1" d="M949.8,166.1c5.9,7.5-2.9,16.2-10.3,10.3-5.9-7.5,2.9-16.2,10.3-10.3Z"/>
      <path class="cls-1" d="M949.8,310c5.9,7.5-2.9,16.2-10.3,10.3-5.9-7.5,2.9-16.2,10.3-10.3Z"/>
      <path class="cls-1" d="M877.6,238.1c5.9,7.5-2.9,16.2-10.3,10.3-5.9-7.5,2.9-16.2,10.3-10.3Z"/>
      <path class="cls-1" d="M807.4,25.9c0,3.9-3.2,7.1-7.1,7.1s-7.1-3.2-7.1-7.1,3.2-7.1,7.1-7.1,7.1,3.2,7.1,7.1Z"/>
      <path class="cls-1" d="M735.5,98.9c0,3.9-3.2,7.1-7.1,7.1s-7.1-3.2-7.1-7.1,3.2-7.1,7.1-7.1,7.1,3.2,7.1,7.1Z"/>
      <path class="cls-1" d="M735.5,171.3c0,3.9-3.2,7.1-7.1,7.1s-7.1-3.2-7.1-7.1,3.2-7.1,7.1-7.1,7.1,3.2,7.1,7.1Z"/>
      <path class="cls-1" d="M1023.6,171.3c0,3.9-3.2,7.1-7.1,7.1s-7.1-3.2-7.1-7.1,3.2-7.1,7.1-7.1,7.1,3.2,7.1,7.1Z"/>
      <path class="cls-1" d="M1021.7,238.1c5.9,7.5-2.9,16.2-10.3,10.3-5.9-7.5,2.9-16.2,10.3-10.3Z"/>
    </g>
  </g>
</svg>