<?xml version="1.0" encoding="UTF-8"?>
<svg xmlns="http://www.w3.org/2000/svg" version="1.1" viewBox="0 0 1312 738">
  <defs>
    <style>
      .cls-1 {
        stroke: #003a6d;
      }

      .cls-1, .cls-2 {
        fill: none;
        stroke-miterlimit: 10;
      }

      .cls-3 {
        fill: #e0e0e0;
      }

      .cls-4 {
        fill: #161616;
        stroke: #007d79;
      }

      .cls-5 {
        fill: #d9fbfb;
        stroke: #03ddbd;
      }

      .cls-2 {
        stroke: #a6c8ff;
      }
    </style>
  </defs>
  <!-- Generator: Adobe Illustrator 28.7.1, SVG Export Plug-In . SVG Version: 1.2.0 Build 142)  -->
  <g>
    <g id="Layer_1">
      <path class="cls-2" d="M-2148.3,0v171.3s0,72,72.4,72h583.6"/>
      <path class="cls-2" d="M-2804.3,98.9h1016.5s72.5,1,72.5-73V0"/>
      <path class="cls-2" d="M-2805,315.2h1162s81.3.3,81.3-71.9v-45.9"/>
      <path class="cls-2" d="M-2804.3,171.3h1016.5s144.4.5,144.4-145.3V0"/>
      <path class="cls-2" d="M-2804.3,26h1160.3s82.3,0,82.3,80.9v631.1"/>
      <path class="cls-5" d="M-1556.6,238.1c5.9,7.5-2.9,16.2-10.3,10.3-5.9-7.5,2.9-16.2,10.3-10.3Z"/>
      <line class="cls-2" x1="-1859.7" x2="-1859.7" y2="738"/>
      <line class="cls-2" x1="-2004" x2="-2004" y2="738"/>
      <line class="cls-2" x1="-2075.9" x2="-2075.9" y2="738"/>
      <line class="cls-2" x1="-1931.9" x2="-1931.9" y2="738"/>
      <line class="cls-2" x1="-1787.8" x2="-1787.8" y2="738"/>
      <path class="cls-5" d="M-1782.6,20.8c5.9,7.5-2.9,16.2-10.3,10.3-5.9-7.5,2.9-16.2,10.3-10.3Z"/>
      <path class="cls-5" d="M-1638.3,20.8c5.9,7.5-2.9,16.2-10.3,10.3-5.9-7.5,2.9-16.2,10.3-10.3Z"/>
      <path class="cls-5" d="M-1926.7,93.7c5.9,7.5-2.9,16.2-10.3,10.3-5.9-7.5,2.9-16.2,10.3-10.3Z"/>
      <path class="cls-5" d="M-1854.6,166.1c5.9,7.5-2.9,16.2-10.3,10.3-5.9-7.5,2.9-16.2,10.3-10.3Z"/>
      <path class="cls-5" d="M-1854.6,310c5.9,7.5-2.9,16.2-10.3,10.3-5.9-7.5,2.9-16.2,10.3-10.3Z"/>
      <path class="cls-5" d="M-1926.7,238.1c5.9,7.5-2.9,16.2-10.3,10.3-5.9-7.5,2.9-16.2,10.3-10.3Z"/>
      <path class="cls-5" d="M-1996.9,25.9c0,3.9-3.2,7.1-7.1,7.1s-7.1-3.2-7.1-7.1,3.2-7.1,7.1-7.1,7.1,3.2,7.1,7.1Z"/>
      <path class="cls-5" d="M-2068.8,98.9c0,3.9-3.2,7.1-7.1,7.1s-7.1-3.2-7.1-7.1,3.2-7.1,7.1-7.1,7.1,3.2,7.1,7.1Z"/>
      <path class="cls-5" d="M-2068.8,171.3c0,3.9-3.2,7.1-7.1,7.1s-7.1-3.2-7.1-7.1,3.2-7.1,7.1-7.1,7.1,3.2,7.1,7.1Z"/>
      <path class="cls-5" d="M-1780.7,171.3c0,3.9-3.2,7.1-7.1,7.1s-7.1-3.2-7.1-7.1,3.2-7.1,7.1-7.1,7.1,3.2,7.1,7.1Z"/>
      <path class="cls-5" d="M-1782.6,238.1c5.9,7.5-2.9,16.2-10.3,10.3-5.9-7.5,2.9-16.2,10.3-10.3Z"/>
      <g>
        <rect class="cls-3" x="-2466.1" y="121.6" width="223.5" height="176.1"/>
        <rect class="cls-3" x="-2225.6" y="121.6" width="223.5" height="176.1"/>
        <rect class="cls-3" x="-1986.4" y="121.6" width="223.5" height="176.1"/>
        <rect class="cls-3" x="-1746.1" y="121.6" width="223.5" height="176.1"/>
      </g>
      <path class="cls-1" d="M656.3-.3v171.3s0,72,72.4,72h583.6"/>
      <path class="cls-1" d="M.3,98.6h1016.5s72.5,1,72.5-73V-.3"/>
      <path class="cls-1" d="M-.3,314.8h1162s81.3.3,81.3-71.9v-45.9"/>
      <path class="cls-1" d="M.3,170.9h1016.5s144.4.5,144.4-145.3V-.3"/>
      <path class="cls-1" d="M.3,25.7h1160.3s82.3,0,82.3,80.9v631.1"/>
      <path class="cls-4" d="M1248.1,237.7c5.9,7.5-2.9,16.2-10.3,10.3-5.9-7.5,2.9-16.2,10.3-10.3Z"/>
      <line class="cls-1" x1="944.9" y1="-.3" x2="944.9" y2="737.7"/>
      <line class="cls-1" x1="800.6" y1="-.3" x2="800.6" y2="737.7"/>
      <line class="cls-1" x1="728.7" y1="-.3" x2="728.7" y2="737.7"/>
      <line class="cls-1" x1="872.8" y1="-.3" x2="872.8" y2="737.7"/>
      <line class="cls-1" x1="1016.9" y1="-.3" x2="1016.9" y2="737.7"/>
      <path class="cls-4" d="M1022,20.5c5.9,7.5-2.9,16.2-10.3,10.3-5.9-7.5,2.9-16.2,10.3-10.3Z"/>
      <path class="cls-4" d="M1166.4,20.5c5.9,7.5-2.9,16.2-10.3,10.3-5.9-7.5,2.9-16.2,10.3-10.3Z"/>
      <path class="cls-4" d="M877.9,93.4c5.9,7.5-2.9,16.2-10.3,10.3-5.9-7.5,2.9-16.2,10.3-10.3Z"/>
      <path class="cls-4" d="M950.1,165.8c5.9,7.5-2.9,16.2-10.3,10.3-5.9-7.5,2.9-16.2,10.3-10.3Z"/>
      <path class="cls-4" d="M950.1,309.7c5.9,7.5-2.9,16.2-10.3,10.3-5.9-7.5,2.9-16.2,10.3-10.3Z"/>
      <path class="cls-4" d="M877.9,237.7c5.9,7.5-2.9,16.2-10.3,10.3-5.9-7.5,2.9-16.2,10.3-10.3Z"/>
      <path class="cls-4" d="M807.7,25.6c0,3.9-3.2,7.1-7.1,7.1s-7.1-3.2-7.1-7.1,3.2-7.1,7.1-7.1,7.1,3.2,7.1,7.1Z"/>
      <path class="cls-4" d="M735.8,98.6c0,3.9-3.2,7.1-7.1,7.1s-7.1-3.2-7.1-7.1,3.2-7.1,7.1-7.1,7.1,3.2,7.1,7.1Z"/>
      <path class="cls-4" d="M735.8,170.9c0,3.9-3.2,7.1-7.1,7.1s-7.1-3.2-7.1-7.1,3.2-7.1,7.1-7.1,7.1,3.2,7.1,7.1Z"/>
      <path class="cls-4" d="M1024,170.9c0,3.9-3.2,7.1-7.1,7.1s-7.1-3.2-7.1-7.1,3.2-7.1,7.1-7.1,7.1,3.2,7.1,7.1Z"/>
      <path class="cls-4" d="M1022,237.7c5.9,7.5-2.9,16.2-10.3,10.3-5.9-7.5,2.9-16.2,10.3-10.3Z"/>
    </g>
  </g>
</svg>