<?xml version="1.0" encoding="UTF-8"?>
<svg xmlns="http://www.w3.org/2000/svg" version="1.1" viewBox="0 0 1312 738">
  <defs>
    <style>
      .cls-1 {
        fill: #d9fbfb;
        stroke: #03ddbd;
      }

      .cls-2 {
        fill: none;
        stroke: #a6c8ff;
        stroke-miterlimit: 10;
      }
    </style>
  </defs>
  <!-- Generator: Adobe Illustrator 28.7.1, SVG Export Plug-In . SVG Version: 1.2.0 Build 142)  -->
  <g>
    <g id="Layer_1">
      <g id="illustrations">
        <path class="cls-2" d="M0,31.3h654.4s73.7-6.6,73.7,73.8v141.5s0,66.5,91.2,66.5h439.5"/>
        <path class="cls-2" d="M0,176.6h1001.4c-10.5.1,77.9.2,77.9-72.7V0"/>
        <path class="cls-2" d="M0,246.6h1001.4s156.9,0,156.9-142.7V0"/>
        <path class="cls-2" d="M819.3,0v313s0,70.4,95.9,70.4h343.6"/>
        <path class="cls-2" d="M0,103.9h1165.6s93.3-5.3,93.3,80.9v553.2"/>
        <path class="cls-1" d="M735.3,176.6c0,3.9-3.2,7.1-7.1,7.1s-7.1-3.2-7.1-7.1,3.2-7.1,7.1-7.1,7.1,3.2,7.1,7.1Z"/>
        <path class="cls-1" d="M735.3,103.8c0,3.9-3.2,7.1-7.1,7.1s-7.1-3.2-7.1-7.1,3.2-7.1,7.1-7.1,7.1,3.2,7.1,7.1Z"/>
        <path class="cls-1" d="M826.4,103.8c0,3.9-3.2,7.1-7.1,7.1s-7.1-3.2-7.1-7.1,3.2-7.1,7.1-7.1,7.1,3.2,7.1,7.1Z"/>
        <path class="cls-1" d="M1264,307.8c5.9,7.5-2.9,16.2-10.3,10.3-5.9-7.5,2.9-16.2,10.3-10.3Z"/>
        <path class="cls-1" d="M1264,378.2c5.9,7.5-2.9,16.2-10.3,10.3-5.9-7.5,2.9-16.2,10.3-10.3Z"/>
        <path class="cls-1" d="M826.4,246.6c0,3.9-3.2,7.1-7.1,7.1s-7.1-3.2-7.1-7.1,3.2-7.1,7.1-7.1,7.1,3.2,7.1,7.1Z"/>
        <path class="cls-1" d="M735.3,246.6c0,3.9-3.2,7.1-7.1,7.1s-7.1-3.2-7.1-7.1,3.2-7.1,7.1-7.1,7.1,3.2,7.1,7.1Z"/>
        <line class="cls-2" x1="915.2" x2="915.2" y2="738"/>
        <line class="cls-2" x1="1001.4" x2="1001.4" y2="738"/>
        <path class="cls-1" d="M1006.5,98.7c5.9,7.5-2.9,16.2-10.3,10.3-5.9-7.5,2.9-16.2,10.3-10.3Z"/>
        <path class="cls-1" d="M1084.4,98.7c5.9,7.5-2.9,16.2-10.3,10.3-5.9-7.5,2.9-16.2,10.3-10.3Z"/>
        <path class="cls-1" d="M1163.4,98.7c5.9,7.5-2.9,16.2-10.3,10.3-5.9-7.5,2.9-16.2,10.3-10.3Z"/>
        <path class="cls-1" d="M920.4,98.7c5.9,7.5-2.9,16.2-10.3,10.3-5.9-7.5,2.9-16.2,10.3-10.3Z"/>
        <path class="cls-1" d="M920.4,171.5c5.9,7.5-2.9,16.2-10.3,10.3-5.9-7.5,2.9-16.2,10.3-10.3Z"/>
        <path class="cls-1" d="M1006.5,241.4c5.9,7.5-2.9,16.2-10.3,10.3-5.9-7.5,2.9-16.2,10.3-10.3Z"/>
        <path class="cls-1" d="M922.3,383.4c0,3.9-3.2,7.1-7.1,7.1s-7.1-3.2-7.1-7.1,3.2-7.1,7.1-7.1,7.1,3.2,7.1,7.1Z"/>
        <path class="cls-1" d="M1006.5,378.2c5.9,7.5-2.9,16.2-10.3,10.3-5.9-7.5,2.9-16.2,10.3-10.3Z"/>
        <path class="cls-1" d="M920.4,307.8c5.9,7.5-2.9,16.2-10.3,10.3-5.9-7.5,2.9-16.2,10.3-10.3Z"/>
      </g>
    </g>
  </g>
</svg>