<?xml version="1.0" encoding="UTF-8"?>
<svg xmlns="http://www.w3.org/2000/svg" version="1.1" viewBox="0 0 1312 738">
  <defs>
    <style>
      .cls-1 {
        fill: #d9fbfb;
        stroke: #03ddbd;
      }

      .cls-2 {
        fill: none;
        stroke: #a6c8ff;
        stroke-miterlimit: 10;
      }
    </style>
  </defs>
  <!-- Generator: Adobe Illustrator 28.7.1, SVG Export Plug-In . SVG Version: 1.2.0 Build 142)  -->
  <g>
    <g id="illustrations">
      <path class="cls-2" d="M0,61.3h624.4s73.7-6.6,73.7,73.8v141.5s0,66.5,91.2,66.5h439.5"/>
      <path class="cls-2" d="M0,206.6h971.4c-10.5.1,77.9.2,77.9-72.7V0"/>
      <path class="cls-2" d="M0,276.6h971.4s156.9,0,156.9-142.7V0"/>
      <path class="cls-2" d="M789.3,0v343s0,70.4,95.9,70.4,343.6,0,343.6,0"/>
      <path class="cls-2" d="M0,133.9h1135.6s93.3-5.3,93.3,80.9v523.2"/>
      <path class="cls-1" d="M705.3,133.8c0,4.4-4,7.9-8.5,7s-5-2.8-5.5-5.5c-.9-4.5,2.6-8.5,7-8.5"/>
      <path class="cls-1" d="M698.2,126.7c3.9,0,7.1,3.2,7.1,7.1"/>
      <path class="cls-1" d="M705.3,206.6c0,3.9-3.2,7.1-7.1,7.1s-7.1-3.2-7.1-7.1,3.2-7.1,7.1-7.1,7.1,3.2,7.1,7.1Z"/>
      <path class="cls-1" d="M796.4,133.8c0,3.9-3.2,7.1-7.1,7.1s-7.1-3.2-7.1-7.1,3.2-7.1,7.1-7.1,7.1,3.2,7.1,7.1Z"/>
      <path class="cls-1" d="M1234,337.8c5.9,7.5-2.9,16.2-10.3,10.3-5.9-7.5,2.9-16.2,10.3-10.3Z"/>
      <path class="cls-1" d="M1234,408.2c5.9,7.5-2.9,16.2-10.3,10.3-5.9-7.5,2.9-16.2,10.3-10.3Z"/>
      <path class="cls-1" d="M796.4,276.6c0,3.9-3.2,7.1-7.1,7.1s-7.1-3.2-7.1-7.1,3.2-7.1,7.1-7.1,7.1,3.2,7.1,7.1Z"/>
      <path class="cls-1" d="M705.3,276.6c0,3.9-3.2,7.1-7.1,7.1s-7.1-3.2-7.1-7.1,3.2-7.1,7.1-7.1,7.1,3.2,7.1,7.1Z"/>
      <line class="cls-2" x1="885.2" y1="0" x2="885.2" y2="738"/>
      <line class="cls-2" x1="971.4" y1="0" x2="971.4" y2="738"/>
      <path class="cls-1" d="M976.5,128.7c5.9,7.5-2.9,16.2-10.3,10.3-5.9-7.5,2.9-16.2,10.3-10.3Z"/>
      <path class="cls-1" d="M1054.4,128.7c5.9,7.5-2.9,16.2-10.3,10.3-5.9-7.5,2.9-16.2,10.3-10.3Z"/>
      <path class="cls-1" d="M1133.4,128.7c5.9,7.5-2.9,16.2-10.3,10.3-5.9-7.5,2.9-16.2,10.3-10.3Z"/>
      <path class="cls-1" d="M890.4,128.7c5.9,7.5-2.9,16.2-10.3,10.3-5.9-7.5,2.9-16.2,10.3-10.3Z"/>
      <path class="cls-1" d="M890.4,201.5c5.9,7.5-2.9,16.2-10.3,10.3-5.9-7.5,2.9-16.2,10.3-10.3Z"/>
      <path class="cls-1" d="M976.5,271.4c5.9,7.5-2.9,16.2-10.3,10.3-5.9-7.5,2.9-16.2,10.3-10.3Z"/>
      <path class="cls-1" d="M892.3,413.4c0,3.9-3.2,7.1-7.1,7.1s-7.1-3.2-7.1-7.1,3.2-7.1,7.1-7.1,7.1,3.2,7.1,7.1Z"/>
      <path class="cls-1" d="M976.5,408.2c5.9,7.5-2.9,16.2-10.3,10.3-5.9-7.5,2.9-16.2,10.3-10.3Z"/>
      <path class="cls-1" d="M890.4,337.8c5.9,7.5-2.9,16.2-10.3,10.3-5.9-7.5,2.9-16.2,10.3-10.3Z"/>
    </g>
  </g>
</svg>