<svg width="1914" height="910" viewBox="0 0 1914 910" fill="none" xmlns="http://www.w3.org/2000/svg">
<g clip-path="url(#clip0_17812_65040)">
<path d="M1914 0H957V910H1914V0Z" fill="url(#paint0_linear_17812_65040)"/>
<path opacity="0.4" d="M1264.2 806.178C1264.2 804.063 1265.91 802.35 1268.02 802.35C1270.14 802.35 1271.85 804.063 1271.85 806.178C1271.85 808.292 1270.14 810.005 1268.02 810.005C1265.91 810.005 1264.2 808.292 1264.2 806.178Z" fill="#A6C8FF"/>
<path opacity="0.2" d="M1202.95 744.937C1202.95 742.822 1204.66 741.109 1206.77 741.109C1208.89 741.109 1210.6 742.822 1210.6 744.937C1210.6 747.052 1208.89 748.764 1206.77 748.764C1204.66 748.764 1202.95 747.052 1202.95 744.937Z" fill="#A6C8FF"/>
<path opacity="0.4" d="M1202.95 683.696C1202.95 681.581 1204.66 679.869 1206.77 679.869C1208.89 679.869 1210.6 681.581 1210.6 683.696C1210.6 685.811 1208.89 687.524 1206.77 687.524C1204.66 687.524 1202.95 685.811 1202.95 683.696Z" fill="#A6C8FF"/>
<path opacity="0.4" d="M1202.95 622.455C1202.95 620.341 1204.66 618.628 1206.77 618.628C1208.89 618.628 1210.6 620.341 1210.6 622.455C1210.6 624.57 1208.89 626.283 1206.77 626.283C1204.66 626.283 1202.95 624.57 1202.95 622.455Z" fill="#A6C8FF"/>
<path opacity="0.2" d="M1202.95 561.214C1202.95 559.1 1204.66 557.387 1206.77 557.387C1208.89 557.387 1210.6 559.1 1210.6 561.214C1210.6 563.329 1208.89 565.042 1206.77 565.042C1204.66 565.042 1202.95 563.329 1202.95 561.214Z" fill="#A6C8FF"/>
<path opacity="0.2" d="M1202.95 499.974C1202.95 497.859 1204.66 496.146 1206.77 496.146C1208.89 496.146 1210.6 497.859 1210.6 499.974C1210.6 502.088 1208.89 503.801 1206.77 503.801C1204.66 503.801 1202.95 502.088 1202.95 499.974Z" fill="#A6C8FF"/>
<path opacity="0.2" d="M1202.95 438.733C1202.95 436.618 1204.66 434.905 1206.77 434.905C1208.89 434.905 1210.6 436.618 1210.6 438.733C1210.6 440.848 1208.89 442.56 1206.77 442.56C1204.66 442.56 1202.95 440.848 1202.95 438.733Z" fill="#A6C8FF"/>
<path opacity="0.2" d="M1202.95 806.178C1202.95 804.063 1204.66 802.35 1206.77 802.35C1208.89 802.35 1210.6 804.063 1210.6 806.178C1210.6 808.292 1208.89 810.005 1206.77 810.005C1204.66 810.005 1202.95 808.292 1202.95 806.178Z" fill="#A6C8FF"/>
<path opacity="0.4" d="M1264.2 867.418C1264.2 865.304 1265.91 863.591 1268.02 863.591C1270.14 863.591 1271.85 865.304 1271.85 867.418C1271.85 869.533 1270.14 871.246 1268.02 871.246C1265.91 871.246 1264.2 869.533 1264.2 867.418Z" fill="#A6C8FF"/>
<path opacity="0.2" d="M1202.95 867.418C1202.95 865.304 1204.66 863.591 1206.77 863.591C1208.89 863.591 1210.6 865.304 1210.6 867.418C1210.6 869.533 1208.89 871.246 1206.77 871.246C1204.66 871.246 1202.95 869.533 1202.95 867.418Z" fill="#A6C8FF"/>
<path opacity="0.2" d="M1141.7 744.937C1141.7 742.822 1143.42 741.109 1145.53 741.109C1147.65 741.109 1149.36 742.822 1149.36 744.937C1149.36 747.052 1147.65 748.764 1145.53 748.764C1143.42 748.764 1141.7 747.052 1141.7 744.937Z" fill="#A6C8FF"/>
<path opacity="0.4" d="M1141.7 683.696C1141.7 681.581 1143.42 679.869 1145.53 679.869C1147.65 679.869 1149.36 681.581 1149.36 683.696C1149.36 685.811 1147.65 687.524 1145.53 687.524C1143.42 687.524 1141.7 685.811 1141.7 683.696Z" fill="#A6C8FF"/>
<path opacity="0.4" d="M1141.7 622.455C1141.7 620.341 1143.42 618.628 1145.53 618.628C1147.65 618.628 1149.36 620.341 1149.36 622.455C1149.36 624.57 1147.65 626.283 1145.53 626.283C1143.42 626.283 1141.7 624.57 1141.7 622.455Z" fill="#A6C8FF"/>
<path opacity="0.2" d="M1141.7 561.214C1141.7 559.1 1143.42 557.387 1145.53 557.387C1147.65 557.387 1149.36 559.1 1149.36 561.214C1149.36 563.329 1147.65 565.042 1145.53 565.042C1143.42 565.042 1141.7 563.329 1141.7 561.214Z" fill="#A6C8FF"/>
<path opacity="0.2" d="M1141.7 499.974C1141.7 497.859 1143.42 496.146 1145.53 496.146C1147.65 496.146 1149.36 497.859 1149.36 499.974C1149.36 502.088 1147.65 503.801 1145.53 503.801C1143.42 503.801 1141.7 502.088 1141.7 499.974Z" fill="#A6C8FF"/>
<path opacity="0.2" d="M1141.7 438.733C1141.7 436.618 1143.42 434.905 1145.53 434.905C1147.65 434.905 1149.36 436.618 1149.36 438.733C1149.36 440.848 1147.65 442.56 1145.53 442.56C1143.42 442.56 1141.7 440.848 1141.7 438.733Z" fill="#A6C8FF"/>
<path opacity="0.2" d="M1141.7 806.178C1141.7 804.063 1143.42 802.35 1145.53 802.35C1147.65 802.35 1149.36 804.063 1149.36 806.178C1149.36 808.292 1147.65 810.005 1145.53 810.005C1143.42 810.005 1141.7 808.292 1141.7 806.178Z" fill="#A6C8FF"/>
<path opacity="0.2" d="M1141.7 867.418C1141.7 865.304 1143.42 863.591 1145.53 863.591C1147.65 863.591 1149.36 865.304 1149.36 867.418C1149.36 869.533 1147.65 871.246 1145.53 871.246C1143.42 871.246 1141.7 869.533 1141.7 867.418Z" fill="#A6C8FF"/>
<path opacity="0.2" d="M1080.45 744.937C1080.45 742.822 1082.17 741.109 1084.28 741.109C1086.4 741.109 1088.11 742.822 1088.11 744.937C1088.11 747.052 1086.4 748.764 1084.28 748.764C1082.17 748.764 1080.45 747.052 1080.45 744.937Z" fill="#A6C8FF"/>
<path opacity="0.4" d="M1080.45 683.696C1080.45 681.581 1082.17 679.869 1084.28 679.869C1086.4 679.869 1088.11 681.581 1088.11 683.696C1088.11 685.811 1086.4 687.524 1084.28 687.524C1082.17 687.524 1080.45 685.811 1080.45 683.696Z" fill="#A6C8FF"/>
<path opacity="0.4" d="M1080.45 622.455C1080.45 620.341 1082.17 618.628 1084.28 618.628C1086.4 618.628 1088.11 620.341 1088.11 622.455C1088.11 624.57 1086.4 626.283 1084.28 626.283C1082.17 626.283 1080.45 624.57 1080.45 622.455Z" fill="#A6C8FF"/>
<path opacity="0.2" d="M1080.45 561.214C1080.45 559.1 1082.17 557.387 1084.28 557.387C1086.4 557.387 1088.11 559.1 1088.11 561.214C1088.11 563.329 1086.4 565.042 1084.28 565.042C1082.17 565.042 1080.45 563.329 1080.45 561.214Z" fill="#A6C8FF"/>
<path opacity="0.2" d="M1080.45 499.974C1080.45 497.859 1082.17 496.146 1084.28 496.146C1086.4 496.146 1088.11 497.859 1088.11 499.974C1088.11 502.088 1086.4 503.801 1084.28 503.801C1082.17 503.801 1080.45 502.088 1080.45 499.974Z" fill="#A6C8FF"/>
<path opacity="0.2" d="M1080.45 438.733C1080.45 436.618 1082.17 434.905 1084.28 434.905C1086.4 434.905 1088.11 436.618 1088.11 438.733C1088.11 440.848 1086.4 442.56 1084.28 442.56C1082.17 442.56 1080.45 440.848 1080.45 438.733Z" fill="#A6C8FF"/>
<path opacity="0.2" d="M1080.45 806.178C1080.45 804.063 1082.17 802.35 1084.28 802.35C1086.4 802.35 1088.11 804.063 1088.11 806.178C1088.11 808.292 1086.4 810.005 1084.28 810.005C1082.17 810.005 1080.45 808.292 1080.45 806.178Z" fill="#A6C8FF"/>
<path opacity="0.2" d="M1080.45 867.418C1080.45 865.304 1082.17 863.591 1084.28 863.591C1086.4 863.591 1088.11 865.304 1088.11 867.418C1088.11 869.533 1086.4 871.246 1084.28 871.246C1082.17 871.246 1080.45 869.533 1080.45 867.418Z" fill="#A6C8FF"/>
<path opacity="0.2" d="M1019.2 744.937C1019.2 742.822 1020.92 741.109 1023.03 741.109C1025.15 741.109 1026.86 742.822 1026.86 744.937C1026.86 747.052 1025.15 748.764 1023.03 748.764C1020.92 748.764 1019.2 747.052 1019.2 744.937Z" fill="#A6C8FF"/>
<path opacity="0.2" d="M1019.2 683.696C1019.2 681.581 1020.92 679.869 1023.03 679.869C1025.15 679.869 1026.86 681.581 1026.86 683.696C1026.86 685.811 1025.15 687.524 1023.03 687.524C1020.92 687.524 1019.2 685.811 1019.2 683.696Z" fill="#A6C8FF"/>
<path opacity="0.2" d="M1019.2 622.455C1019.2 620.341 1020.92 618.628 1023.03 618.628C1025.15 618.628 1026.86 620.341 1026.86 622.455C1026.86 624.57 1025.15 626.283 1023.03 626.283C1020.92 626.283 1019.2 624.57 1019.2 622.455Z" fill="#A6C8FF"/>
<path opacity="0.2" d="M1019.2 561.214C1019.2 559.1 1020.92 557.387 1023.03 557.387C1025.15 557.387 1026.86 559.1 1026.86 561.214C1026.86 563.329 1025.15 565.042 1023.03 565.042C1020.92 565.042 1019.2 563.329 1019.2 561.214Z" fill="#A6C8FF"/>
<path opacity="0.2" d="M1019.2 499.974C1019.2 497.859 1020.92 496.146 1023.03 496.146C1025.15 496.146 1026.86 497.859 1026.86 499.974C1026.86 502.088 1025.15 503.801 1023.03 503.801C1020.92 503.801 1019.2 502.088 1019.2 499.974Z" fill="#A6C8FF"/>
<path opacity="0.2" d="M1019.2 438.733C1019.2 436.618 1020.92 434.905 1023.03 434.905C1025.15 434.905 1026.86 436.618 1026.86 438.733C1026.86 440.848 1025.15 442.56 1023.03 442.56C1020.92 442.56 1019.2 440.848 1019.2 438.733Z" fill="#A6C8FF"/>
<path opacity="0.2" d="M1019.2 806.178C1019.2 804.063 1020.92 802.35 1023.03 802.35C1025.15 802.35 1026.86 804.063 1026.86 806.178C1026.86 808.292 1025.15 810.005 1023.03 810.005C1020.92 810.005 1019.2 808.292 1019.2 806.178Z" fill="#A6C8FF"/>
<path opacity="0.2" d="M1019.2 867.418C1019.2 865.304 1020.92 863.591 1023.03 863.591C1025.15 863.591 1026.86 865.304 1026.86 867.418C1026.86 869.533 1025.15 871.246 1023.03 871.246C1020.92 871.246 1019.2 869.533 1019.2 867.418Z" fill="#A6C8FF"/>
<path d="M1264.2 744.937C1264.2 742.822 1265.91 741.109 1268.02 741.109C1270.14 741.109 1271.85 742.822 1271.85 744.937C1271.85 747.052 1270.14 748.764 1268.02 748.764C1265.91 748.764 1264.2 747.052 1264.2 744.937Z" fill="#A6C8FF"/>
<path d="M1264.2 622.455C1264.2 620.341 1265.91 618.628 1268.02 618.628C1270.14 618.628 1271.85 620.341 1271.85 622.455C1271.85 624.57 1270.14 626.283 1268.02 626.283C1265.91 626.283 1264.2 624.57 1264.2 622.455Z" fill="#A6C8FF"/>
<path opacity="0.4" d="M1264.2 561.214C1264.2 559.1 1265.91 557.387 1268.02 557.387C1270.14 557.387 1271.85 559.1 1271.85 561.214C1271.85 563.329 1270.14 565.042 1268.02 565.042C1265.91 565.042 1264.2 563.329 1264.2 561.214Z" fill="#A6C8FF"/>
<path opacity="0.2" d="M1264.2 499.974C1264.2 497.859 1265.91 496.146 1268.02 496.146C1270.14 496.146 1271.85 497.859 1271.85 499.974C1271.85 502.088 1270.14 503.801 1268.02 503.801C1265.91 503.801 1264.2 502.088 1264.2 499.974Z" fill="#A6C8FF"/>
<path d="M1325.45 806.178C1325.45 804.063 1327.16 802.35 1329.27 802.35C1331.39 802.35 1333.1 804.063 1333.1 806.178C1333.1 808.292 1331.39 810.005 1329.27 810.005C1327.16 810.005 1325.45 808.292 1325.45 806.178Z" fill="#CFE3FF"/>
<path d="M1325.45 683.696C1325.45 681.581 1327.16 679.869 1329.27 679.869C1331.39 679.869 1333.1 681.581 1333.1 683.696C1333.1 685.811 1331.39 687.524 1329.27 687.524C1327.16 687.524 1325.45 685.811 1325.45 683.696Z" fill="#A6C8FF"/>
<path d="M1325.45 622.455C1325.45 620.341 1327.16 618.628 1329.27 618.628C1331.39 618.628 1333.1 620.341 1333.1 622.455C1333.1 624.57 1331.39 626.283 1329.27 626.283C1327.16 626.283 1325.45 624.57 1325.45 622.455Z" fill="#A6C8FF"/>
<path opacity="0.4" d="M1325.45 561.214C1325.45 559.1 1327.16 557.387 1329.27 557.387C1331.39 557.387 1333.1 559.1 1333.1 561.214C1333.1 563.329 1331.39 565.042 1329.27 565.042C1327.16 565.042 1325.45 563.329 1325.45 561.214Z" fill="#A6C8FF"/>
<path opacity="0.2" d="M1325.45 499.974C1325.45 497.859 1327.16 496.146 1329.27 496.146C1331.39 496.146 1333.1 497.859 1333.1 499.974C1333.1 502.088 1331.39 503.801 1329.27 503.801C1327.16 503.801 1325.45 502.088 1325.45 499.974Z" fill="#A6C8FF"/>
<path d="M1386.7 806.178C1386.7 804.063 1388.41 802.35 1390.52 802.35C1392.64 802.35 1394.35 804.063 1394.35 806.178C1394.35 808.292 1392.64 810.005 1390.52 810.005C1388.41 810.005 1386.7 808.292 1386.7 806.178Z" fill="#D1E3FF"/>
<path d="M1386.7 744.937C1386.7 742.822 1388.41 741.109 1390.52 741.109C1392.64 741.109 1394.35 742.822 1394.35 744.937C1394.35 747.052 1392.64 748.764 1390.52 748.764C1388.41 748.764 1386.7 747.052 1386.7 744.937Z" fill="#A6C8FF"/>
<path d="M1386.7 683.696C1386.7 681.581 1388.41 679.869 1390.52 679.869C1392.64 679.869 1394.35 681.581 1394.35 683.696C1394.35 685.811 1392.64 687.524 1390.52 687.524C1388.41 687.524 1386.7 685.811 1386.7 683.696Z" fill="#A6C8FF"/>
<path d="M1386.7 622.455C1386.7 620.341 1388.41 618.628 1390.52 618.628C1392.64 618.628 1394.35 620.341 1394.35 622.455C1394.35 624.57 1392.64 626.283 1390.52 626.283C1388.41 626.283 1386.7 624.57 1386.7 622.455Z" fill="#A6C8FF"/>
<path opacity="0.2" d="M1386.7 499.974C1386.7 497.859 1388.41 496.146 1390.52 496.146C1392.64 496.146 1394.35 497.859 1394.35 499.974C1394.35 502.088 1392.64 503.801 1390.52 503.801C1388.41 503.801 1386.7 502.088 1386.7 499.974Z" fill="#A6C8FF"/>
<path opacity="0.4" d="M1447.94 806.178C1447.94 804.063 1449.65 802.35 1451.77 802.35C1453.88 802.35 1455.59 804.063 1455.59 806.178C1455.59 808.292 1453.88 810.005 1451.77 810.005C1449.65 810.005 1447.94 808.292 1447.94 806.178Z" fill="#A6C8FF"/>
<path opacity="0.4" d="M1447.94 744.937C1447.94 742.822 1449.65 741.109 1451.77 741.109C1453.88 741.109 1455.59 742.822 1455.59 744.937C1455.59 747.052 1453.88 748.764 1451.77 748.764C1449.65 748.764 1447.94 747.052 1447.94 744.937Z" fill="#A6C8FF"/>
<path d="M1447.94 622.455C1447.94 620.341 1449.65 618.628 1451.77 618.628C1453.88 618.628 1455.59 620.341 1455.59 622.455C1455.59 624.57 1453.88 626.283 1451.77 626.283C1449.65 626.283 1447.94 624.57 1447.94 622.455Z" fill="#A6C8FF"/>
<path opacity="0.4" d="M1447.94 561.214C1447.94 559.1 1449.65 557.387 1451.77 557.387C1453.88 557.387 1455.59 559.1 1455.59 561.214C1455.59 563.329 1453.88 565.042 1451.77 565.042C1449.65 565.042 1447.94 563.329 1447.94 561.214Z" fill="#A6C8FF"/>
<path opacity="0.2" d="M1447.94 499.974C1447.94 497.859 1449.65 496.146 1451.77 496.146C1453.88 496.146 1455.59 497.859 1455.59 499.974C1455.59 502.088 1453.88 503.801 1451.77 503.801C1449.65 503.801 1447.94 502.088 1447.94 499.974Z" fill="#A6C8FF"/>
<path opacity="0.4" d="M1509.19 806.178C1509.19 804.063 1510.9 802.35 1513.02 802.35C1515.13 802.35 1516.84 804.063 1516.84 806.178C1516.84 808.292 1515.13 810.005 1513.02 810.005C1510.9 810.005 1509.19 808.292 1509.19 806.178Z" fill="#A6C8FF"/>
<path d="M1509.19 744.937C1509.19 742.822 1510.9 741.109 1513.02 741.109C1515.13 741.109 1516.84 742.822 1516.84 744.937C1516.84 747.052 1515.13 748.764 1513.02 748.764C1510.9 748.764 1509.19 747.052 1509.19 744.937Z" fill="#D1E3FF"/>
<path d="M1509.19 683.696C1509.19 681.581 1510.9 679.869 1513.02 679.869C1515.13 679.869 1516.84 681.581 1516.84 683.696C1516.84 685.811 1515.13 687.524 1513.02 687.524C1510.9 687.524 1509.19 685.811 1509.19 683.696Z" fill="#A6C8FF"/>
<path d="M1509.19 622.455C1509.19 620.341 1510.9 618.628 1513.02 618.628C1515.13 618.628 1516.84 620.341 1516.84 622.455C1516.84 624.57 1515.13 626.283 1513.02 626.283C1510.9 626.283 1509.19 624.57 1509.19 622.455Z" fill="#A6C8FF"/>
<path d="M1509.19 561.214C1509.19 559.1 1510.9 557.387 1513.02 557.387C1515.13 557.387 1516.84 559.1 1516.84 561.214C1516.84 563.329 1515.13 565.042 1513.02 565.042C1510.9 565.042 1509.19 563.329 1509.19 561.214Z" fill="#A6C8FF"/>
<path d="M1509.19 499.974C1509.19 497.859 1510.9 496.146 1513.02 496.146C1515.13 496.146 1516.84 497.859 1516.84 499.974C1516.84 502.088 1515.13 503.801 1513.02 503.801C1510.9 503.801 1509.19 502.088 1509.19 499.974Z" fill="#A6C8FF"/>
<path opacity="0.4" d="M1570.44 806.178C1570.44 804.063 1572.15 802.35 1574.27 802.35C1576.38 802.35 1578.09 804.063 1578.09 806.178C1578.09 808.292 1576.38 810.005 1574.27 810.005C1572.15 810.005 1570.44 808.292 1570.44 806.178Z" fill="#A6C8FF"/>
<path d="M1570.44 561.214C1570.44 559.1 1572.15 557.387 1574.27 557.387C1576.38 557.387 1578.09 559.1 1578.09 561.214C1578.09 563.329 1576.38 565.042 1574.27 565.042C1572.15 565.042 1570.44 563.329 1570.44 561.214Z" fill="#A6C8FF"/>
<path opacity="0.4" d="M1631.69 806.178C1631.69 804.063 1633.4 802.35 1635.52 802.35C1637.63 802.35 1639.34 804.063 1639.34 806.178C1639.34 808.292 1637.63 810.005 1635.52 810.005C1633.4 810.005 1631.69 808.292 1631.69 806.178Z" fill="#A6C8FF"/>
<path d="M1631.69 744.937C1631.69 742.822 1633.4 741.109 1635.52 741.109C1637.63 741.109 1639.34 742.822 1639.34 744.937C1639.34 747.052 1637.63 748.764 1635.52 748.764C1633.4 748.764 1631.69 747.052 1631.69 744.937Z" fill="#A6C8FF"/>
<path opacity="0.4" d="M1631.69 683.696C1631.69 681.581 1633.4 679.869 1635.52 679.869C1637.63 679.869 1639.34 681.581 1639.34 683.696C1639.34 685.811 1637.63 687.524 1635.52 687.524C1633.4 687.524 1631.69 685.811 1631.69 683.696Z" fill="#A6C8FF"/>
<path d="M1631.69 622.455C1631.69 620.341 1633.4 618.628 1635.52 618.628C1637.63 618.628 1639.34 620.341 1639.34 622.455C1639.34 624.57 1637.63 626.283 1635.52 626.283C1633.4 626.283 1631.69 624.57 1631.69 622.455Z" fill="#A6C8FF"/>
<path opacity="0.8" d="M1631.69 561.214C1631.69 559.1 1633.4 557.387 1635.52 557.387C1637.63 557.387 1639.34 559.1 1639.34 561.214C1639.34 563.329 1637.63 565.042 1635.52 565.042C1633.4 565.042 1631.69 563.329 1631.69 561.214Z" fill="#A6C8FF"/>
<path opacity="0.2" d="M1631.69 499.974C1631.69 497.859 1633.4 496.146 1635.52 496.146C1637.63 496.146 1639.34 497.859 1639.34 499.974C1639.34 502.088 1637.63 503.801 1635.52 503.801C1633.4 503.801 1631.69 502.088 1631.69 499.974Z" fill="#A6C8FF"/>
<path d="M1692.93 806.178C1692.93 804.063 1694.64 802.35 1696.76 802.35C1698.87 802.35 1700.59 804.063 1700.59 806.178C1700.59 808.292 1698.87 810.005 1696.76 810.005C1694.64 810.005 1692.93 808.292 1692.93 806.178Z" fill="#A6C8FF"/>
<path d="M1692.93 744.937C1692.93 742.822 1694.64 741.109 1696.76 741.109C1698.87 741.109 1700.59 742.822 1700.59 744.937C1700.59 747.052 1698.87 748.764 1696.76 748.764C1694.64 748.764 1692.93 747.052 1692.93 744.937Z" fill="#A6C8FF"/>
<path d="M1692.93 683.696C1692.93 681.581 1694.64 679.869 1696.76 679.869C1698.87 679.869 1700.59 681.581 1700.59 683.696C1700.59 685.811 1698.87 687.524 1696.76 687.524C1694.64 687.524 1692.93 685.811 1692.93 683.696Z" fill="#D2E4FE"/>
<path d="M1692.93 622.455C1692.93 620.341 1694.64 618.628 1696.76 618.628C1698.87 618.628 1700.59 620.341 1700.59 622.455C1700.59 624.57 1698.87 626.283 1696.76 626.283C1694.64 626.283 1692.93 624.57 1692.93 622.455Z" fill="#A6C8FF"/>
<path opacity="0.8" d="M1692.93 561.214C1692.93 559.1 1694.64 557.387 1696.76 557.387C1698.87 557.387 1700.59 559.1 1700.59 561.214C1700.59 563.329 1698.87 565.042 1696.76 565.042C1694.64 565.042 1692.93 563.329 1692.93 561.214Z" fill="#A6C8FF"/>
<path opacity="0.2" d="M1692.93 499.974C1692.93 497.859 1694.64 496.146 1696.76 496.146C1698.87 496.146 1700.59 497.859 1700.59 499.974C1700.59 502.088 1698.87 503.801 1696.76 503.801C1694.64 503.801 1692.93 502.088 1692.93 499.974Z" fill="#A6C8FF"/>
<path d="M1754.18 806.178C1754.18 804.063 1755.89 802.35 1758.01 802.35C1760.12 802.35 1761.84 804.063 1761.84 806.178C1761.84 808.292 1760.12 810.005 1758.01 810.005C1755.89 810.005 1754.18 808.292 1754.18 806.178Z" fill="#A6C8FF"/>
<path d="M1754.18 744.937C1754.18 742.822 1755.89 741.109 1758.01 741.109C1760.12 741.109 1761.84 742.822 1761.84 744.937C1761.84 747.052 1760.12 748.764 1758.01 748.764C1755.89 748.764 1754.18 747.052 1754.18 744.937Z" fill="#A6C8FF"/>
<path opacity="0.8" d="M1754.18 561.214C1754.18 559.1 1755.89 557.387 1758.01 557.387C1760.12 557.387 1761.84 559.1 1761.84 561.214C1761.84 563.329 1760.12 565.042 1758.01 565.042C1755.89 565.042 1754.18 563.329 1754.18 561.214Z" fill="#A6C8FF"/>
<path opacity="0.2" d="M1754.18 499.974C1754.18 497.859 1755.89 496.146 1758.01 496.146C1760.12 496.146 1761.84 497.859 1761.84 499.974C1761.84 502.088 1760.12 503.801 1758.01 503.801C1755.89 503.801 1754.18 502.088 1754.18 499.974Z" fill="#A6C8FF"/>
<path opacity="0.4" d="M1815.43 683.696C1815.43 681.581 1817.14 679.869 1819.26 679.869C1821.37 679.869 1823.09 681.581 1823.09 683.696C1823.09 685.811 1821.37 687.524 1819.26 687.524C1817.14 687.524 1815.43 685.811 1815.43 683.696Z" fill="#A6C8FF"/>
<path d="M1815.43 622.455C1815.43 620.341 1817.14 618.628 1819.26 618.628C1821.37 618.628 1823.09 620.341 1823.09 622.455C1823.09 624.57 1821.37 626.283 1819.26 626.283C1817.14 626.283 1815.43 624.57 1815.43 622.455Z" fill="#A6C8FF"/>
<path opacity="0.8" d="M1815.43 561.214C1815.43 559.1 1817.14 557.387 1819.26 557.387C1821.37 557.387 1823.09 559.1 1823.09 561.214C1823.09 563.329 1821.37 565.042 1819.26 565.042C1817.14 565.042 1815.43 563.329 1815.43 561.214Z" fill="#A6C8FF"/>
<path opacity="0.2" d="M1815.43 499.974C1815.43 497.859 1817.14 496.146 1819.26 496.146C1821.37 496.146 1823.09 497.859 1823.09 499.974C1823.09 502.088 1821.37 503.801 1819.26 503.801C1817.14 503.801 1815.43 502.088 1815.43 499.974Z" fill="#A6C8FF"/>
<path d="M1386.7 561.214C1386.7 559.1 1388.41 557.387 1390.52 557.387C1392.64 557.387 1394.35 559.1 1394.35 561.214C1394.35 563.329 1392.64 565.042 1390.52 565.042C1388.41 565.042 1386.7 563.329 1386.7 561.214Z" fill="#E1ECFB"/>
<path d="M1758.01 634.438V910" stroke="#D0E2FF" stroke-width="2" stroke-miterlimit="10"/>
<path d="M1819.26 648.324V910" stroke="#D0E2FF" stroke-width="2" stroke-miterlimit="10"/>
<path d="M1451.78 566.082V910" stroke="#D0E2FF" stroke-width="2" stroke-miterlimit="10"/>
<path d="M1574.3 500.931V910" stroke="#D0E2FF" stroke-width="2" stroke-miterlimit="10"/>
<path opacity="0.4" d="M1758.01 760.247C1766.46 760.247 1773.32 753.393 1773.32 744.937C1773.32 736.482 1766.46 729.627 1758.01 729.627C1749.55 729.627 1742.7 736.482 1742.7 744.937C1742.7 753.393 1749.55 760.247 1758.01 760.247Z" fill="#D0E2FF"/>
<path d="M1758.01 748.764C1760.12 748.764 1761.84 747.051 1761.84 744.937C1761.84 742.823 1760.12 741.109 1758.01 741.109C1755.89 741.109 1754.18 742.823 1754.18 744.937C1754.18 747.051 1755.89 748.764 1758.01 748.764Z" fill="#A6C8FF"/>
<path opacity="0.4" d="M1451.77 637.765C1460.22 637.765 1467.08 630.911 1467.08 622.455C1467.08 614 1460.22 607.145 1451.77 607.145C1443.31 607.145 1436.45 614 1436.45 622.455C1436.45 630.911 1443.31 637.765 1451.77 637.765Z" fill="#D0E2FF"/>
<path d="M1451.77 626.283C1453.88 626.283 1455.59 624.569 1455.59 622.455C1455.59 620.341 1453.88 618.627 1451.77 618.627C1449.65 618.627 1447.94 620.341 1447.94 622.455C1447.94 624.569 1449.65 626.283 1451.77 626.283Z" fill="#A6C8FF"/>
<path d="M1578.09 557.387H1570.44V565.042H1578.09V557.387Z" fill="#A6C8FF"/>
<path d="M1467.08 561.214H1574.26" stroke="url(#paint1_linear_17812_65040)" stroke-miterlimit="10"/>
<path d="M1678.79 561.214H1574.27" stroke="url(#paint2_linear_17812_65040)" stroke-miterlimit="10"/>
<path d="M1761.84 779.385H1754.19V787.04H1761.84V779.385Z" fill="#A6C8FF"/>
<path d="M1650.83 783.212H1758.01" stroke="url(#paint3_linear_17812_65040)" stroke-miterlimit="10"/>
<path d="M1865.2 783.212H1758.02" stroke="url(#paint4_linear_17812_65040)" stroke-miterlimit="10"/>
<path opacity="0.4" d="M1574.27 821.488C1582.72 821.488 1589.58 814.633 1589.58 806.178C1589.58 797.722 1582.72 790.868 1574.27 790.868C1565.81 790.868 1558.95 797.722 1558.95 806.178C1558.95 814.633 1565.81 821.488 1574.27 821.488Z" fill="#D0E2FF"/>
<path d="M1574.27 810.005C1576.38 810.005 1578.09 808.292 1578.09 806.178C1578.09 804.064 1576.38 802.35 1574.27 802.35C1572.15 802.35 1570.44 804.064 1570.44 806.178C1570.44 808.292 1572.15 810.005 1574.27 810.005Z" fill="#A6C8FF"/>
<path d="M1813.52 624.188V744.08C1813.52 747.196 1816.04 749.721 1819.16 749.721H1819.36C1822.47 749.721 1825 747.196 1825 744.08V624.188C1825 621.073 1822.47 618.547 1819.36 618.547H1819.16C1816.04 618.547 1813.52 621.073 1813.52 624.188Z" fill="url(#paint5_linear_17812_65040)"/>
<path opacity="0.4" d="M1386.7 867.418C1386.7 865.304 1388.41 863.591 1390.52 863.591C1392.64 863.591 1394.35 865.304 1394.35 867.418C1394.35 869.533 1392.64 871.246 1390.52 871.246C1388.41 871.246 1386.7 869.533 1386.7 867.418Z" fill="#A6C8FF"/>
<path d="M1325.45 867.418C1325.45 865.304 1327.16 863.591 1329.27 863.591C1331.39 863.591 1333.1 865.304 1333.1 867.418C1333.1 869.533 1331.39 871.246 1329.27 871.246C1327.16 871.246 1325.45 869.533 1325.45 867.418Z" fill="#DFECFF"/>
<path opacity="0.4" d="M1631.69 867.418C1631.69 865.304 1633.4 863.591 1635.52 863.591C1637.63 863.591 1639.34 865.304 1639.34 867.418C1639.34 869.533 1637.63 871.246 1635.52 871.246C1633.4 871.246 1631.69 869.533 1631.69 867.418Z" fill="#A6C8FF"/>
<path d="M1570.44 867.418C1570.44 865.304 1572.15 863.591 1574.27 863.591C1576.38 863.591 1578.09 865.304 1578.09 867.418C1578.09 869.533 1576.38 871.246 1574.27 871.246C1572.15 871.246 1570.44 869.533 1570.44 867.418Z" fill="#A6C8FF"/>
<path opacity="0.2" d="M1509.19 867.418C1509.19 865.304 1510.9 863.591 1513.02 863.591C1515.13 863.591 1516.84 865.304 1516.84 867.418C1516.84 869.533 1515.13 871.246 1513.02 871.246C1510.9 871.246 1509.19 869.533 1509.19 867.418Z" fill="#A6C8FF"/>
<path opacity="0.4" d="M1447.94 867.418C1447.94 865.304 1449.65 863.591 1451.77 863.591C1453.88 863.591 1455.59 865.304 1455.59 867.418C1455.59 869.533 1453.88 871.246 1451.77 871.246C1449.65 871.246 1447.94 869.533 1447.94 867.418Z" fill="#A6C8FF"/>
<path d="M1754.18 867.418C1754.18 865.304 1755.89 863.591 1758.01 863.591C1760.12 863.591 1761.84 865.304 1761.84 867.418C1761.84 869.533 1760.12 871.246 1758.01 871.246C1755.89 871.246 1754.18 869.533 1754.18 867.418Z" fill="#D1E3FF"/>
<path opacity="0.2" d="M1692.93 867.418C1692.93 865.304 1694.64 863.591 1696.76 863.591C1698.87 863.591 1700.59 865.304 1700.59 867.418C1700.59 869.533 1698.87 871.246 1696.76 871.246C1694.64 871.246 1692.93 869.533 1692.93 867.418Z" fill="#A6C8FF"/>
<path d="M1815.43 867.418C1815.43 865.304 1817.14 863.591 1819.26 863.591C1821.37 863.591 1823.09 865.304 1823.09 867.418C1823.09 869.533 1821.37 871.246 1819.26 871.246C1817.14 871.246 1815.43 869.533 1815.43 867.418Z" fill="#D1E3FF"/>
<path opacity="0.2" d="M1878.59 867.418C1878.59 865.304 1880.31 863.591 1882.42 863.591C1884.54 863.591 1886.25 865.304 1886.25 867.418C1886.25 869.533 1884.54 871.246 1882.42 871.246C1880.31 871.246 1878.59 869.533 1878.59 867.418Z" fill="#A6C8FF"/>
<path opacity="0.4" d="M1876.68 806.178C1876.68 804.063 1878.39 802.35 1880.51 802.35C1882.62 802.35 1884.34 804.063 1884.34 806.178C1884.34 808.292 1882.62 810.005 1880.51 810.005C1878.39 810.005 1876.68 808.292 1876.68 806.178Z" fill="#A6C8FF"/>
<path d="M1876.68 744.937C1876.68 742.822 1878.39 741.109 1880.51 741.109C1882.62 741.109 1884.34 742.822 1884.34 744.937C1884.34 747.052 1882.62 748.764 1880.51 748.764C1878.39 748.764 1876.68 747.052 1876.68 744.937Z" fill="#A6C8FF"/>
<path d="M1876.68 683.696C1876.68 681.581 1878.39 679.869 1880.51 679.869C1882.62 679.869 1884.34 681.581 1884.34 683.696C1884.34 685.811 1882.62 687.524 1880.51 687.524C1878.39 687.524 1876.68 685.811 1876.68 683.696Z" fill="#A6C8FF"/>
<path d="M1876.68 622.455C1876.68 620.341 1878.39 618.628 1880.51 618.628C1882.62 618.628 1884.34 620.341 1884.34 622.455C1884.34 624.57 1882.62 626.283 1880.51 626.283C1878.39 626.283 1876.68 624.57 1876.68 622.455Z" fill="#A6C8FF"/>
<path opacity="0.4" d="M1876.68 561.214C1876.68 559.1 1878.39 557.387 1880.51 557.387C1882.62 557.387 1884.34 559.1 1884.34 561.214C1884.34 563.329 1882.62 565.042 1880.51 565.042C1878.39 565.042 1876.68 563.329 1876.68 561.214Z" fill="#A6C8FF"/>
<path opacity="0.2" d="M1874.77 499.974C1874.77 497.859 1876.48 496.146 1878.59 496.146C1880.71 496.146 1882.42 497.859 1882.42 499.974C1882.42 502.088 1880.71 503.801 1878.59 503.801C1876.48 503.801 1874.77 502.088 1874.77 499.974Z" fill="#A6C8FF"/>
<path d="M1268.03 683.796V910" stroke="#D0E2FF" stroke-width="2" stroke-miterlimit="10"/>
<path d="M1271.86 741.109H1264.2V748.764H1271.86V741.109Z" fill="#A6C8FF"/>
<path d="M1160.84 744.937H1268.03" stroke="url(#paint6_linear_17812_65040)" stroke-miterlimit="10"/>
<path d="M1375.22 744.937H1268.03" stroke="url(#paint7_linear_17812_65040)" stroke-miterlimit="10"/>
<path d="M1390.56 683.237V907.109" stroke="#D0E2FF" stroke-width="2" stroke-miterlimit="10"/>
<path d="M1384.78 682.638V804.862C1384.78 807.977 1387.31 810.503 1390.42 810.503H1390.62C1393.74 810.503 1396.27 807.977 1396.27 804.862V682.638C1396.27 679.522 1393.74 676.997 1390.62 676.997H1390.42C1387.31 676.997 1384.78 679.522 1384.78 682.638Z" fill="url(#paint8_linear_17812_65040)"/>
<path d="M1447.94 683.696C1447.94 681.581 1449.65 679.869 1451.77 679.869C1453.88 679.869 1455.59 681.581 1455.59 683.696C1455.59 685.811 1453.88 687.524 1451.77 687.524C1449.65 687.524 1447.94 685.811 1447.94 683.696Z" fill="#A6C8FF"/>
<path d="M1264.2 683.696C1264.2 681.581 1265.91 679.869 1268.02 679.869C1270.14 679.869 1271.85 681.581 1271.85 683.696C1271.85 685.811 1270.14 687.524 1268.02 687.524C1265.91 687.524 1264.2 685.811 1264.2 683.696Z" fill="#A6C8FF"/>
<path d="M1754.18 683.696C1754.18 681.581 1755.89 679.869 1758.01 679.869C1760.12 679.869 1761.84 681.581 1761.84 683.696C1761.84 685.811 1760.12 687.524 1758.01 687.524C1755.89 687.524 1754.18 685.811 1754.18 683.696Z" fill="#BED7FF"/>
<path d="M1570.44 499.974C1570.44 497.859 1572.15 496.146 1574.27 496.146C1576.38 496.146 1578.09 497.859 1578.09 499.974C1578.09 502.088 1576.38 503.801 1574.27 503.801C1572.15 503.801 1570.44 502.088 1570.44 499.974Z" fill="#A6C8FF"/>
<path d="M1570.44 744.937C1570.44 742.822 1572.15 741.109 1574.27 741.109C1576.38 741.109 1578.09 742.822 1578.09 744.937C1578.09 747.052 1576.38 748.764 1574.27 748.764C1572.15 748.764 1570.44 747.052 1570.44 744.937Z" fill="#A6C8FF"/>
<path d="M1570.44 683.696C1570.44 681.581 1572.15 679.869 1574.27 679.869C1576.38 679.869 1578.09 681.581 1578.09 683.696C1578.09 685.811 1576.38 687.524 1574.27 687.524C1572.15 687.524 1570.44 685.811 1570.44 683.696Z" fill="#A6C8FF"/>
<path d="M1570.44 622.455C1570.44 620.341 1572.15 618.628 1574.27 618.628C1576.38 618.628 1578.09 620.341 1578.09 622.455C1578.09 624.57 1576.38 626.283 1574.27 626.283C1572.15 626.283 1570.44 624.57 1570.44 622.455Z" fill="#A6C8FF"/>
<path d="M1815.43 744.937C1815.43 742.822 1817.14 741.109 1819.26 741.109C1821.37 741.109 1823.09 742.822 1823.09 744.937C1823.09 747.052 1821.37 748.764 1819.26 748.764C1817.14 748.764 1815.43 747.052 1815.43 744.937Z" fill="#A6C8FF"/>
<path d="M1754.18 622.455C1754.18 620.341 1755.89 618.628 1758.01 618.628C1760.12 618.628 1761.84 620.341 1761.84 622.455C1761.84 624.57 1760.12 626.283 1758.01 626.283C1755.89 626.283 1754.18 624.57 1754.18 622.455Z" fill="#D2E4FE"/>
<path d="M1815.43 806.178C1815.43 804.063 1817.14 802.35 1819.26 802.35C1821.37 802.35 1823.09 804.063 1823.09 806.178C1823.09 808.292 1821.37 810.005 1819.26 810.005C1817.14 810.005 1815.43 808.292 1815.43 806.178Z" fill="#A6C8FF"/>
<path d="M1325.45 744.937C1325.45 742.822 1327.16 741.109 1329.27 741.109C1331.39 741.109 1333.1 742.822 1333.1 744.937C1333.1 747.052 1331.39 748.764 1329.27 748.764C1327.16 748.764 1325.45 747.052 1325.45 744.937Z" fill="#A6C8FF"/>
</g>
<g clip-path="url(#clip1_17812_65040)">
<path d="M957 0H0V910H957V0Z" fill="url(#paint9_linear_17812_65040)"/>
<path opacity="0.4" d="M307.195 806.178C307.195 804.063 308.908 802.35 311.023 802.35C313.138 802.35 314.851 804.063 314.851 806.178C314.851 808.292 313.138 810.005 311.023 810.005C308.908 810.005 307.195 808.292 307.195 806.178Z" fill="#A6C8FF"/>
<path opacity="0.2" d="M245.945 744.937C245.945 742.822 247.658 741.109 249.773 741.109C251.888 741.109 253.601 742.822 253.601 744.937C253.601 747.052 251.888 748.764 249.773 748.764C247.658 748.764 245.945 747.052 245.945 744.937Z" fill="#A6C8FF"/>
<path opacity="0.4" d="M245.945 683.696C245.945 681.581 247.658 679.869 249.773 679.869C251.888 679.869 253.601 681.581 253.601 683.696C253.601 685.811 251.888 687.524 249.773 687.524C247.658 687.524 245.945 685.811 245.945 683.696Z" fill="#A6C8FF"/>
<path opacity="0.4" d="M245.945 622.455C245.945 620.341 247.658 618.628 249.773 618.628C251.888 618.628 253.601 620.341 253.601 622.455C253.601 624.57 251.888 626.283 249.773 626.283C247.658 626.283 245.945 624.57 245.945 622.455Z" fill="#A6C8FF"/>
<path opacity="0.2" d="M245.945 561.214C245.945 559.1 247.658 557.387 249.773 557.387C251.888 557.387 253.601 559.1 253.601 561.214C253.601 563.329 251.888 565.042 249.773 565.042C247.658 565.042 245.945 563.329 245.945 561.214Z" fill="#A6C8FF"/>
<path opacity="0.2" d="M245.945 499.974C245.945 497.859 247.658 496.146 249.773 496.146C251.888 496.146 253.601 497.859 253.601 499.974C253.601 502.088 251.888 503.801 249.773 503.801C247.658 503.801 245.945 502.088 245.945 499.974Z" fill="#A6C8FF"/>
<path opacity="0.2" d="M245.945 438.733C245.945 436.618 247.658 434.905 249.773 434.905C251.888 434.905 253.601 436.618 253.601 438.733C253.601 440.848 251.888 442.56 249.773 442.56C247.658 442.56 245.945 440.848 245.945 438.733Z" fill="#A6C8FF"/>
<path opacity="0.2" d="M245.945 806.178C245.945 804.063 247.658 802.35 249.773 802.35C251.888 802.35 253.601 804.063 253.601 806.178C253.601 808.292 251.888 810.005 249.773 810.005C247.658 810.005 245.945 808.292 245.945 806.178Z" fill="#A6C8FF"/>
<path opacity="0.4" d="M307.195 867.418C307.195 865.304 308.908 863.591 311.023 863.591C313.138 863.591 314.851 865.304 314.851 867.418C314.851 869.533 313.138 871.246 311.023 871.246C308.908 871.246 307.195 869.533 307.195 867.418Z" fill="#A6C8FF"/>
<path opacity="0.2" d="M245.945 867.418C245.945 865.304 247.658 863.591 249.773 863.591C251.888 863.591 253.601 865.304 253.601 867.418C253.601 869.533 251.888 871.246 249.773 871.246C247.658 871.246 245.945 869.533 245.945 867.418Z" fill="#A6C8FF"/>
<path opacity="0.2" d="M184.703 744.937C184.703 742.822 186.416 741.109 188.531 741.109C190.646 741.109 192.359 742.822 192.359 744.937C192.359 747.052 190.646 748.764 188.531 748.764C186.416 748.764 184.703 747.052 184.703 744.937Z" fill="#A6C8FF"/>
<path opacity="0.4" d="M184.703 683.696C184.703 681.581 186.416 679.869 188.531 679.869C190.646 679.869 192.359 681.581 192.359 683.696C192.359 685.811 190.646 687.524 188.531 687.524C186.416 687.524 184.703 685.811 184.703 683.696Z" fill="#A6C8FF"/>
<path opacity="0.4" d="M184.703 622.455C184.703 620.341 186.416 618.628 188.531 618.628C190.646 618.628 192.359 620.341 192.359 622.455C192.359 624.57 190.646 626.283 188.531 626.283C186.416 626.283 184.703 624.57 184.703 622.455Z" fill="#A6C8FF"/>
<path opacity="0.2" d="M184.703 561.214C184.703 559.1 186.416 557.387 188.531 557.387C190.646 557.387 192.359 559.1 192.359 561.214C192.359 563.329 190.646 565.042 188.531 565.042C186.416 565.042 184.703 563.329 184.703 561.214Z" fill="#A6C8FF"/>
<path opacity="0.2" d="M184.703 499.974C184.703 497.859 186.416 496.146 188.531 496.146C190.646 496.146 192.359 497.859 192.359 499.974C192.359 502.088 190.646 503.801 188.531 503.801C186.416 503.801 184.703 502.088 184.703 499.974Z" fill="#A6C8FF"/>
<path opacity="0.2" d="M184.703 438.733C184.703 436.618 186.416 434.905 188.531 434.905C190.646 434.905 192.359 436.618 192.359 438.733C192.359 440.848 190.646 442.56 188.531 442.56C186.416 442.56 184.703 440.848 184.703 438.733Z" fill="#A6C8FF"/>
<path opacity="0.2" d="M184.703 806.178C184.703 804.063 186.416 802.35 188.531 802.35C190.646 802.35 192.359 804.063 192.359 806.178C192.359 808.292 190.646 810.005 188.531 810.005C186.416 810.005 184.703 808.292 184.703 806.178Z" fill="#A6C8FF"/>
<path opacity="0.2" d="M184.703 867.418C184.703 865.304 186.416 863.591 188.531 863.591C190.646 863.591 192.359 865.304 192.359 867.418C192.359 869.533 190.646 871.246 188.531 871.246C186.416 871.246 184.703 869.533 184.703 867.418Z" fill="#A6C8FF"/>
<path opacity="0.2" d="M123.453 744.937C123.453 742.822 125.166 741.109 127.281 741.109C129.396 741.109 131.109 742.822 131.109 744.937C131.109 747.052 129.396 748.764 127.281 748.764C125.166 748.764 123.453 747.052 123.453 744.937Z" fill="#A6C8FF"/>
<path opacity="0.4" d="M123.453 683.696C123.453 681.581 125.166 679.869 127.281 679.869C129.396 679.869 131.109 681.581 131.109 683.696C131.109 685.811 129.396 687.524 127.281 687.524C125.166 687.524 123.453 685.811 123.453 683.696Z" fill="#A6C8FF"/>
<path opacity="0.4" d="M123.453 622.455C123.453 620.341 125.166 618.628 127.281 618.628C129.396 618.628 131.109 620.341 131.109 622.455C131.109 624.57 129.396 626.283 127.281 626.283C125.166 626.283 123.453 624.57 123.453 622.455Z" fill="#A6C8FF"/>
<path opacity="0.2" d="M123.453 561.214C123.453 559.1 125.166 557.387 127.281 557.387C129.396 557.387 131.109 559.1 131.109 561.214C131.109 563.329 129.396 565.042 127.281 565.042C125.166 565.042 123.453 563.329 123.453 561.214Z" fill="#A6C8FF"/>
<path opacity="0.2" d="M123.453 499.974C123.453 497.859 125.166 496.146 127.281 496.146C129.396 496.146 131.109 497.859 131.109 499.974C131.109 502.088 129.396 503.801 127.281 503.801C125.166 503.801 123.453 502.088 123.453 499.974Z" fill="#A6C8FF"/>
<path opacity="0.2" d="M123.453 438.733C123.453 436.618 125.166 434.905 127.281 434.905C129.396 434.905 131.109 436.618 131.109 438.733C131.109 440.848 129.396 442.56 127.281 442.56C125.166 442.56 123.453 440.848 123.453 438.733Z" fill="#A6C8FF"/>
<path opacity="0.2" d="M123.453 806.178C123.453 804.063 125.166 802.35 127.281 802.35C129.396 802.35 131.109 804.063 131.109 806.178C131.109 808.292 129.396 810.005 127.281 810.005C125.166 810.005 123.453 808.292 123.453 806.178Z" fill="#A6C8FF"/>
<path opacity="0.2" d="M123.453 867.418C123.453 865.304 125.166 863.591 127.281 863.591C129.396 863.591 131.109 865.304 131.109 867.418C131.109 869.533 129.396 871.246 127.281 871.246C125.166 871.246 123.453 869.533 123.453 867.418Z" fill="#A6C8FF"/>
<path opacity="0.2" d="M62.2031 744.937C62.2031 742.822 63.9162 741.109 66.0311 741.109C68.1461 741.109 69.8591 742.822 69.8591 744.937C69.8591 747.052 68.1461 748.764 66.0311 748.764C63.9162 748.764 62.2031 747.052 62.2031 744.937Z" fill="#A6C8FF"/>
<path opacity="0.2" d="M62.2031 683.696C62.2031 681.581 63.9162 679.869 66.0311 679.869C68.1461 679.869 69.8591 681.581 69.8591 683.696C69.8591 685.811 68.1461 687.524 66.0311 687.524C63.9162 687.524 62.2031 685.811 62.2031 683.696Z" fill="#A6C8FF"/>
<path opacity="0.2" d="M62.2031 622.455C62.2031 620.341 63.9162 618.628 66.0311 618.628C68.1461 618.628 69.8591 620.341 69.8591 622.455C69.8591 624.57 68.1461 626.283 66.0311 626.283C63.9162 626.283 62.2031 624.57 62.2031 622.455Z" fill="#A6C8FF"/>
<path opacity="0.2" d="M62.2031 561.214C62.2031 559.1 63.9162 557.387 66.0311 557.387C68.1461 557.387 69.8591 559.1 69.8591 561.214C69.8591 563.329 68.1461 565.042 66.0311 565.042C63.9162 565.042 62.2031 563.329 62.2031 561.214Z" fill="#A6C8FF"/>
<path opacity="0.2" d="M62.2031 499.974C62.2031 497.859 63.9162 496.146 66.0311 496.146C68.1461 496.146 69.8591 497.859 69.8591 499.974C69.8591 502.088 68.1461 503.801 66.0311 503.801C63.9162 503.801 62.2031 502.088 62.2031 499.974Z" fill="#A6C8FF"/>
<path opacity="0.2" d="M62.2031 438.733C62.2031 436.618 63.9162 434.905 66.0311 434.905C68.1461 434.905 69.8591 436.618 69.8591 438.733C69.8591 440.848 68.1461 442.56 66.0311 442.56C63.9162 442.56 62.2031 440.848 62.2031 438.733Z" fill="#A6C8FF"/>
<path opacity="0.2" d="M62.2031 806.178C62.2031 804.063 63.9162 802.35 66.0311 802.35C68.1461 802.35 69.8591 804.063 69.8591 806.178C69.8591 808.292 68.1461 810.005 66.0311 810.005C63.9162 810.005 62.2031 808.292 62.2031 806.178Z" fill="#A6C8FF"/>
<path opacity="0.2" d="M62.2031 867.418C62.2031 865.304 63.9162 863.591 66.0311 863.591C68.1461 863.591 69.8591 865.304 69.8591 867.418C69.8591 869.533 68.1461 871.246 66.0311 871.246C63.9162 871.246 62.2031 869.533 62.2031 867.418Z" fill="#A6C8FF"/>
<path d="M307.195 744.937C307.195 742.822 308.908 741.109 311.023 741.109C313.138 741.109 314.851 742.822 314.851 744.937C314.851 747.052 313.138 748.764 311.023 748.764C308.908 748.764 307.195 747.052 307.195 744.937Z" fill="#A6C8FF"/>
<path d="M307.195 622.455C307.195 620.341 308.908 618.628 311.023 618.628C313.138 618.628 314.851 620.341 314.851 622.455C314.851 624.57 313.138 626.283 311.023 626.283C308.908 626.283 307.195 624.57 307.195 622.455Z" fill="#A6C8FF"/>
<path opacity="0.4" d="M307.195 561.214C307.195 559.1 308.908 557.387 311.023 557.387C313.138 557.387 314.851 559.1 314.851 561.214C314.851 563.329 313.138 565.042 311.023 565.042C308.908 565.042 307.195 563.329 307.195 561.214Z" fill="#A6C8FF"/>
<path opacity="0.2" d="M307.195 499.974C307.195 497.859 308.908 496.146 311.023 496.146C313.138 496.146 314.851 497.859 314.851 499.974C314.851 502.088 313.138 503.801 311.023 503.801C308.908 503.801 307.195 502.088 307.195 499.974Z" fill="#A6C8FF"/>
<path d="M368.445 806.178C368.445 804.063 370.158 802.35 372.273 802.35C374.388 802.35 376.101 804.063 376.101 806.178C376.101 808.292 374.388 810.005 372.273 810.005C370.158 810.005 368.445 808.292 368.445 806.178Z" fill="#CFE3FF"/>
<path d="M368.445 683.696C368.445 681.581 370.158 679.869 372.273 679.869C374.388 679.869 376.101 681.581 376.101 683.696C376.101 685.811 374.388 687.524 372.273 687.524C370.158 687.524 368.445 685.811 368.445 683.696Z" fill="#A6C8FF"/>
<path d="M368.445 622.455C368.445 620.341 370.158 618.628 372.273 618.628C374.388 618.628 376.101 620.341 376.101 622.455C376.101 624.57 374.388 626.283 372.273 626.283C370.158 626.283 368.445 624.57 368.445 622.455Z" fill="#A6C8FF"/>
<path opacity="0.4" d="M368.445 561.214C368.445 559.1 370.158 557.387 372.273 557.387C374.388 557.387 376.101 559.1 376.101 561.214C376.101 563.329 374.388 565.042 372.273 565.042C370.158 565.042 368.445 563.329 368.445 561.214Z" fill="#A6C8FF"/>
<path opacity="0.2" d="M368.445 499.974C368.445 497.859 370.158 496.146 372.273 496.146C374.388 496.146 376.101 497.859 376.101 499.974C376.101 502.088 374.388 503.801 372.273 503.801C370.158 503.801 368.445 502.088 368.445 499.974Z" fill="#A6C8FF"/>
<path d="M429.695 806.178C429.695 804.063 431.408 802.35 433.523 802.35C435.638 802.35 437.351 804.063 437.351 806.178C437.351 808.292 435.638 810.005 433.523 810.005C431.408 810.005 429.695 808.292 429.695 806.178Z" fill="#D1E3FF"/>
<path d="M429.695 744.937C429.695 742.822 431.408 741.109 433.523 741.109C435.638 741.109 437.351 742.822 437.351 744.937C437.351 747.052 435.638 748.764 433.523 748.764C431.408 748.764 429.695 747.052 429.695 744.937Z" fill="#A6C8FF"/>
<path d="M429.695 683.696C429.695 681.581 431.408 679.869 433.523 679.869C435.638 679.869 437.351 681.581 437.351 683.696C437.351 685.811 435.638 687.524 433.523 687.524C431.408 687.524 429.695 685.811 429.695 683.696Z" fill="#A6C8FF"/>
<path d="M429.695 622.455C429.695 620.341 431.408 618.628 433.523 618.628C435.638 618.628 437.351 620.341 437.351 622.455C437.351 624.57 435.638 626.283 433.523 626.283C431.408 626.283 429.695 624.57 429.695 622.455Z" fill="#A6C8FF"/>
<path opacity="0.2" d="M429.695 499.974C429.695 497.859 431.408 496.146 433.523 496.146C435.638 496.146 437.351 497.859 437.351 499.974C437.351 502.088 435.638 503.801 433.523 503.801C431.408 503.801 429.695 502.088 429.695 499.974Z" fill="#A6C8FF"/>
<path opacity="0.4" d="M490.938 806.178C490.938 804.063 492.651 802.35 494.766 802.35C496.88 802.35 498.594 804.063 498.594 806.178C498.594 808.292 496.88 810.005 494.766 810.005C492.651 810.005 490.938 808.292 490.938 806.178Z" fill="#A6C8FF"/>
<path opacity="0.4" d="M490.938 744.937C490.938 742.822 492.651 741.109 494.766 741.109C496.88 741.109 498.594 742.822 498.594 744.937C498.594 747.052 496.88 748.764 494.766 748.764C492.651 748.764 490.938 747.052 490.938 744.937Z" fill="#A6C8FF"/>
<path d="M490.938 622.455C490.938 620.341 492.651 618.628 494.766 618.628C496.88 618.628 498.594 620.341 498.594 622.455C498.594 624.57 496.88 626.283 494.766 626.283C492.651 626.283 490.938 624.57 490.938 622.455Z" fill="#A6C8FF"/>
<path opacity="0.4" d="M490.938 561.214C490.938 559.1 492.651 557.387 494.766 557.387C496.88 557.387 498.594 559.1 498.594 561.214C498.594 563.329 496.88 565.042 494.766 565.042C492.651 565.042 490.938 563.329 490.938 561.214Z" fill="#A6C8FF"/>
<path opacity="0.2" d="M490.938 499.974C490.938 497.859 492.651 496.146 494.766 496.146C496.88 496.146 498.594 497.859 498.594 499.974C498.594 502.088 496.88 503.801 494.766 503.801C492.651 503.801 490.938 502.088 490.938 499.974Z" fill="#A6C8FF"/>
<path opacity="0.4" d="M552.188 806.178C552.188 804.063 553.901 802.35 556.016 802.35C558.13 802.35 559.844 804.063 559.844 806.178C559.844 808.292 558.13 810.005 556.016 810.005C553.901 810.005 552.188 808.292 552.188 806.178Z" fill="#A6C8FF"/>
<path d="M552.188 744.937C552.188 742.822 553.901 741.109 556.016 741.109C558.13 741.109 559.844 742.822 559.844 744.937C559.844 747.052 558.13 748.764 556.016 748.764C553.901 748.764 552.188 747.052 552.188 744.937Z" fill="#D1E3FF"/>
<path d="M552.188 683.696C552.188 681.581 553.901 679.869 556.016 679.869C558.13 679.869 559.844 681.581 559.844 683.696C559.844 685.811 558.13 687.524 556.016 687.524C553.901 687.524 552.188 685.811 552.188 683.696Z" fill="#A6C8FF"/>
<path d="M552.188 622.455C552.188 620.341 553.901 618.628 556.016 618.628C558.13 618.628 559.844 620.341 559.844 622.455C559.844 624.57 558.13 626.283 556.016 626.283C553.901 626.283 552.188 624.57 552.188 622.455Z" fill="#A6C8FF"/>
<path d="M552.188 561.214C552.188 559.1 553.901 557.387 556.016 557.387C558.13 557.387 559.844 559.1 559.844 561.214C559.844 563.329 558.13 565.042 556.016 565.042C553.901 565.042 552.188 563.329 552.188 561.214Z" fill="#A6C8FF"/>
<path d="M552.188 499.974C552.188 497.859 553.901 496.146 556.016 496.146C558.13 496.146 559.844 497.859 559.844 499.974C559.844 502.088 558.13 503.801 556.016 503.801C553.901 503.801 552.188 502.088 552.188 499.974Z" fill="#A6C8FF"/>
<path opacity="0.4" d="M613.438 806.178C613.438 804.063 615.151 802.35 617.266 802.35C619.38 802.35 621.094 804.063 621.094 806.178C621.094 808.292 619.38 810.005 617.266 810.005C615.151 810.005 613.438 808.292 613.438 806.178Z" fill="#A6C8FF"/>
<path d="M613.438 561.214C613.438 559.1 615.151 557.387 617.266 557.387C619.38 557.387 621.094 559.1 621.094 561.214C621.094 563.329 619.38 565.042 617.266 565.042C615.151 565.042 613.438 563.329 613.438 561.214Z" fill="#A6C8FF"/>
<path opacity="0.4" d="M674.688 806.178C674.688 804.063 676.401 802.35 678.516 802.35C680.63 802.35 682.344 804.063 682.344 806.178C682.344 808.292 680.63 810.005 678.516 810.005C676.401 810.005 674.688 808.292 674.688 806.178Z" fill="#A6C8FF"/>
<path d="M674.688 744.937C674.688 742.822 676.401 741.109 678.516 741.109C680.63 741.109 682.344 742.822 682.344 744.937C682.344 747.052 680.63 748.764 678.516 748.764C676.401 748.764 674.688 747.052 674.688 744.937Z" fill="#A6C8FF"/>
<path opacity="0.4" d="M674.688 683.696C674.688 681.581 676.401 679.869 678.516 679.869C680.63 679.869 682.344 681.581 682.344 683.696C682.344 685.811 680.63 687.524 678.516 687.524C676.401 687.524 674.688 685.811 674.688 683.696Z" fill="#A6C8FF"/>
<path d="M674.688 622.455C674.688 620.341 676.401 618.628 678.516 618.628C680.63 618.628 682.344 620.341 682.344 622.455C682.344 624.57 680.63 626.283 678.516 626.283C676.401 626.283 674.688 624.57 674.688 622.455Z" fill="#A6C8FF"/>
<path opacity="0.8" d="M674.688 561.214C674.688 559.1 676.401 557.387 678.516 557.387C680.63 557.387 682.344 559.1 682.344 561.214C682.344 563.329 680.63 565.042 678.516 565.042C676.401 565.042 674.688 563.329 674.688 561.214Z" fill="#A6C8FF"/>
<path opacity="0.2" d="M674.688 499.974C674.688 497.859 676.401 496.146 678.516 496.146C680.63 496.146 682.344 497.859 682.344 499.974C682.344 502.088 680.63 503.801 678.516 503.801C676.401 503.801 674.688 502.088 674.688 499.974Z" fill="#A6C8FF"/>
<path d="M735.93 806.178C735.93 804.063 737.643 802.35 739.758 802.35C741.873 802.35 743.586 804.063 743.586 806.178C743.586 808.292 741.873 810.005 739.758 810.005C737.643 810.005 735.93 808.292 735.93 806.178Z" fill="#A6C8FF"/>
<path d="M735.93 744.937C735.93 742.822 737.643 741.109 739.758 741.109C741.873 741.109 743.586 742.822 743.586 744.937C743.586 747.052 741.873 748.764 739.758 748.764C737.643 748.764 735.93 747.052 735.93 744.937Z" fill="#A6C8FF"/>
<path d="M735.93 683.696C735.93 681.581 737.643 679.869 739.758 679.869C741.873 679.869 743.586 681.581 743.586 683.696C743.586 685.811 741.873 687.524 739.758 687.524C737.643 687.524 735.93 685.811 735.93 683.696Z" fill="#D2E4FE"/>
<path d="M735.93 622.455C735.93 620.341 737.643 618.628 739.758 618.628C741.873 618.628 743.586 620.341 743.586 622.455C743.586 624.57 741.873 626.283 739.758 626.283C737.643 626.283 735.93 624.57 735.93 622.455Z" fill="#A6C8FF"/>
<path opacity="0.8" d="M735.93 561.214C735.93 559.1 737.643 557.387 739.758 557.387C741.873 557.387 743.586 559.1 743.586 561.214C743.586 563.329 741.873 565.042 739.758 565.042C737.643 565.042 735.93 563.329 735.93 561.214Z" fill="#A6C8FF"/>
<path opacity="0.2" d="M735.93 499.974C735.93 497.859 737.643 496.146 739.758 496.146C741.873 496.146 743.586 497.859 743.586 499.974C743.586 502.088 741.873 503.801 739.758 503.801C737.643 503.801 735.93 502.088 735.93 499.974Z" fill="#A6C8FF"/>
<path d="M797.18 806.178C797.18 804.063 798.893 802.35 801.008 802.35C803.123 802.35 804.836 804.063 804.836 806.178C804.836 808.292 803.123 810.005 801.008 810.005C798.893 810.005 797.18 808.292 797.18 806.178Z" fill="#A6C8FF"/>
<path d="M797.18 744.937C797.18 742.822 798.893 741.109 801.008 741.109C803.123 741.109 804.836 742.822 804.836 744.937C804.836 747.052 803.123 748.764 801.008 748.764C798.893 748.764 797.18 747.052 797.18 744.937Z" fill="#A6C8FF"/>
<path opacity="0.8" d="M797.18 561.214C797.18 559.1 798.893 557.387 801.008 557.387C803.123 557.387 804.836 559.1 804.836 561.214C804.836 563.329 803.123 565.042 801.008 565.042C798.893 565.042 797.18 563.329 797.18 561.214Z" fill="#A6C8FF"/>
<path opacity="0.2" d="M797.18 499.974C797.18 497.859 798.893 496.146 801.008 496.146C803.123 496.146 804.836 497.859 804.836 499.974C804.836 502.088 803.123 503.801 801.008 503.801C798.893 503.801 797.18 502.088 797.18 499.974Z" fill="#A6C8FF"/>
<path opacity="0.4" d="M858.43 683.696C858.43 681.581 860.143 679.869 862.258 679.869C864.373 679.869 866.086 681.581 866.086 683.696C866.086 685.811 864.373 687.524 862.258 687.524C860.143 687.524 858.43 685.811 858.43 683.696Z" fill="#A6C8FF"/>
<path d="M858.43 622.455C858.43 620.341 860.143 618.628 862.258 618.628C864.373 618.628 866.086 620.341 866.086 622.455C866.086 624.57 864.373 626.283 862.258 626.283C860.143 626.283 858.43 624.57 858.43 622.455Z" fill="#A6C8FF"/>
<path opacity="0.8" d="M858.43 561.214C858.43 559.1 860.143 557.387 862.258 557.387C864.373 557.387 866.086 559.1 866.086 561.214C866.086 563.329 864.373 565.042 862.258 565.042C860.143 565.042 858.43 563.329 858.43 561.214Z" fill="#A6C8FF"/>
<path opacity="0.2" d="M858.43 499.974C858.43 497.859 860.143 496.146 862.258 496.146C864.373 496.146 866.086 497.859 866.086 499.974C866.086 502.088 864.373 503.801 862.258 503.801C860.143 503.801 858.43 502.088 858.43 499.974Z" fill="#A6C8FF"/>
<path d="M429.695 561.214C429.695 559.1 431.408 557.387 433.523 557.387C435.638 557.387 437.351 559.1 437.351 561.214C437.351 563.329 435.638 565.042 433.523 565.042C431.408 565.042 429.695 563.329 429.695 561.214Z" fill="#E1ECFB"/>
<path d="M801.008 634.438V910" stroke="#D0E2FF" stroke-width="2" stroke-miterlimit="10"/>
<path d="M862.258 648.324V910" stroke="#D0E2FF" stroke-width="2" stroke-miterlimit="10"/>
<path d="M494.781 566.082V910" stroke="#D0E2FF" stroke-width="2" stroke-miterlimit="10"/>
<path d="M617.297 500.931V910" stroke="#D0E2FF" stroke-width="2" stroke-miterlimit="10"/>
<path opacity="0.4" d="M801.007 760.247C809.464 760.247 816.319 753.393 816.319 744.937C816.319 736.482 809.464 729.627 801.007 729.627C792.551 729.627 785.695 736.482 785.695 744.937C785.695 753.393 792.551 760.247 801.007 760.247Z" fill="#D0E2FF"/>
<path d="M801.008 748.764C803.122 748.764 804.836 747.051 804.836 744.937C804.836 742.823 803.122 741.109 801.008 741.109C798.894 741.109 797.18 742.823 797.18 744.937C797.18 747.051 798.894 748.764 801.008 748.764Z" fill="#A6C8FF"/>
<path opacity="0.4" d="M494.765 637.765C503.222 637.765 510.077 630.911 510.077 622.455C510.077 614 503.222 607.145 494.765 607.145C486.309 607.145 479.453 614 479.453 622.455C479.453 630.911 486.309 637.765 494.765 637.765Z" fill="#D0E2FF"/>
<path d="M494.766 626.283C496.88 626.283 498.594 624.569 498.594 622.455C498.594 620.341 496.88 618.627 494.766 618.627C492.651 618.627 490.938 620.341 490.938 622.455C490.938 624.569 492.651 626.283 494.766 626.283Z" fill="#A6C8FF"/>
<path d="M621.094 557.387H613.438V565.042H621.094V557.387Z" fill="#A6C8FF"/>
<path d="M510.078 561.214H617.262" stroke="url(#paint10_linear_17812_65040)" stroke-miterlimit="10"/>
<path d="M721.788 561.214H617.266" stroke="url(#paint11_linear_17812_65040)" stroke-miterlimit="10"/>
<path d="M804.844 779.385H797.188V787.04H804.844V779.385Z" fill="#A6C8FF"/>
<path d="M693.828 783.212H801.012" stroke="url(#paint12_linear_17812_65040)" stroke-miterlimit="10"/>
<path d="M908.2 783.212H801.016" stroke="url(#paint13_linear_17812_65040)" stroke-miterlimit="10"/>
<path opacity="0.4" d="M617.265 821.488C625.722 821.488 632.577 814.633 632.577 806.178C632.577 797.722 625.722 790.868 617.265 790.868C608.809 790.868 601.953 797.722 601.953 806.178C601.953 814.633 608.809 821.488 617.265 821.488Z" fill="#D0E2FF"/>
<path d="M617.266 810.005C619.38 810.005 621.094 808.292 621.094 806.178C621.094 804.064 619.38 802.35 617.266 802.35C615.151 802.35 613.438 804.064 613.438 806.178C613.438 808.292 615.151 810.005 617.266 810.005Z" fill="#A6C8FF"/>
<path d="M856.516 624.188V744.08C856.516 747.196 859.041 749.721 862.157 749.721H862.358C865.474 749.721 868 747.196 868 744.08V624.188C868 621.073 865.474 618.547 862.358 618.547H862.157C859.041 618.547 856.516 621.073 856.516 624.188Z" fill="url(#paint14_linear_17812_65040)"/>
<path opacity="0.4" d="M429.695 867.418C429.695 865.304 431.408 863.591 433.523 863.591C435.638 863.591 437.351 865.304 437.351 867.418C437.351 869.533 435.638 871.246 433.523 871.246C431.408 871.246 429.695 869.533 429.695 867.418Z" fill="#A6C8FF"/>
<path d="M368.445 867.418C368.445 865.304 370.158 863.591 372.273 863.591C374.388 863.591 376.101 865.304 376.101 867.418C376.101 869.533 374.388 871.246 372.273 871.246C370.158 871.246 368.445 869.533 368.445 867.418Z" fill="#DFECFF"/>
<path opacity="0.4" d="M674.688 867.418C674.688 865.304 676.401 863.591 678.516 863.591C680.63 863.591 682.344 865.304 682.344 867.418C682.344 869.533 680.63 871.246 678.516 871.246C676.401 871.246 674.688 869.533 674.688 867.418Z" fill="#A6C8FF"/>
<path d="M613.438 867.418C613.438 865.304 615.151 863.591 617.266 863.591C619.38 863.591 621.094 865.304 621.094 867.418C621.094 869.533 619.38 871.246 617.266 871.246C615.151 871.246 613.438 869.533 613.438 867.418Z" fill="#A6C8FF"/>
<path opacity="0.2" d="M552.188 867.418C552.188 865.304 553.901 863.591 556.016 863.591C558.13 863.591 559.844 865.304 559.844 867.418C559.844 869.533 558.13 871.246 556.016 871.246C553.901 871.246 552.188 869.533 552.188 867.418Z" fill="#A6C8FF"/>
<path opacity="0.4" d="M490.938 867.418C490.938 865.304 492.651 863.591 494.766 863.591C496.88 863.591 498.594 865.304 498.594 867.418C498.594 869.533 496.88 871.246 494.766 871.246C492.651 871.246 490.938 869.533 490.938 867.418Z" fill="#A6C8FF"/>
<path d="M797.18 867.418C797.18 865.304 798.893 863.591 801.008 863.591C803.123 863.591 804.836 865.304 804.836 867.418C804.836 869.533 803.123 871.246 801.008 871.246C798.893 871.246 797.18 869.533 797.18 867.418Z" fill="#D1E3FF"/>
<path opacity="0.2" d="M735.93 867.418C735.93 865.304 737.643 863.591 739.758 863.591C741.873 863.591 743.586 865.304 743.586 867.418C743.586 869.533 741.873 871.246 739.758 871.246C737.643 871.246 735.93 869.533 735.93 867.418Z" fill="#A6C8FF"/>
<path d="M858.43 867.418C858.43 865.304 860.143 863.591 862.258 863.591C864.373 863.591 866.086 865.304 866.086 867.418C866.086 869.533 864.373 871.246 862.258 871.246C860.143 871.246 858.43 869.533 858.43 867.418Z" fill="#D1E3FF"/>
<path opacity="0.2" d="M921.594 867.418C921.594 865.304 923.307 863.591 925.422 863.591C927.537 863.591 929.25 865.304 929.25 867.418C929.25 869.533 927.537 871.246 925.422 871.246C923.307 871.246 921.594 869.533 921.594 867.418Z" fill="#A6C8FF"/>
<path opacity="0.4" d="M919.68 806.178C919.68 804.063 921.393 802.35 923.508 802.35C925.623 802.35 927.336 804.063 927.336 806.178C927.336 808.292 925.623 810.005 923.508 810.005C921.393 810.005 919.68 808.292 919.68 806.178Z" fill="#A6C8FF"/>
<path d="M919.68 744.937C919.68 742.822 921.393 741.109 923.508 741.109C925.623 741.109 927.336 742.822 927.336 744.937C927.336 747.052 925.623 748.764 923.508 748.764C921.393 748.764 919.68 747.052 919.68 744.937Z" fill="#A6C8FF"/>
<path d="M919.68 683.696C919.68 681.581 921.393 679.869 923.508 679.869C925.623 679.869 927.336 681.581 927.336 683.696C927.336 685.811 925.623 687.524 923.508 687.524C921.393 687.524 919.68 685.811 919.68 683.696Z" fill="#A6C8FF"/>
<path d="M919.68 622.455C919.68 620.341 921.393 618.628 923.508 618.628C925.623 618.628 927.336 620.341 927.336 622.455C927.336 624.57 925.623 626.283 923.508 626.283C921.393 626.283 919.68 624.57 919.68 622.455Z" fill="#A6C8FF"/>
<path opacity="0.4" d="M919.68 561.214C919.68 559.1 921.393 557.387 923.508 557.387C925.623 557.387 927.336 559.1 927.336 561.214C927.336 563.329 925.623 565.042 923.508 565.042C921.393 565.042 919.68 563.329 919.68 561.214Z" fill="#A6C8FF"/>
<path opacity="0.2" d="M917.766 499.974C917.766 497.859 919.479 496.146 921.594 496.146C923.709 496.146 925.422 497.859 925.422 499.974C925.422 502.088 923.709 503.801 921.594 503.801C919.479 503.801 917.766 502.088 917.766 499.974Z" fill="#A6C8FF"/>
<path d="M311.031 683.796V910" stroke="#D0E2FF" stroke-width="2" stroke-miterlimit="10"/>
<path d="M314.859 741.109H307.203V748.764H314.859V741.109Z" fill="#A6C8FF"/>
<path d="M203.844 744.937H311.028" stroke="url(#paint15_linear_17812_65040)" stroke-miterlimit="10"/>
<path d="M418.215 744.937H311.031" stroke="url(#paint16_linear_17812_65040)" stroke-miterlimit="10"/>
<path d="M433.562 683.237V907.109" stroke="#D0E2FF" stroke-width="2" stroke-miterlimit="10"/>
<path d="M427.781 682.638V804.862C427.781 807.977 430.307 810.503 433.423 810.503H433.624C436.739 810.503 439.265 807.977 439.265 804.862V682.638C439.265 679.522 436.739 676.997 433.624 676.997H433.423C430.307 676.997 427.781 679.522 427.781 682.638Z" fill="url(#paint17_linear_17812_65040)"/>
<path d="M490.938 683.696C490.938 681.581 492.651 679.869 494.766 679.869C496.88 679.869 498.594 681.581 498.594 683.696C498.594 685.811 496.88 687.524 494.766 687.524C492.651 687.524 490.938 685.811 490.938 683.696Z" fill="#A6C8FF"/>
<path d="M307.195 683.696C307.195 681.581 308.908 679.869 311.023 679.869C313.138 679.869 314.851 681.581 314.851 683.696C314.851 685.811 313.138 687.524 311.023 687.524C308.908 687.524 307.195 685.811 307.195 683.696Z" fill="#A6C8FF"/>
<path d="M797.18 683.696C797.18 681.581 798.893 679.869 801.008 679.869C803.123 679.869 804.836 681.581 804.836 683.696C804.836 685.811 803.123 687.524 801.008 687.524C798.893 687.524 797.18 685.811 797.18 683.696Z" fill="#BED7FF"/>
<path d="M613.438 499.974C613.438 497.859 615.151 496.146 617.266 496.146C619.38 496.146 621.094 497.859 621.094 499.974C621.094 502.088 619.38 503.801 617.266 503.801C615.151 503.801 613.438 502.088 613.438 499.974Z" fill="#A6C8FF"/>
<path d="M613.438 744.937C613.438 742.822 615.151 741.109 617.266 741.109C619.38 741.109 621.094 742.822 621.094 744.937C621.094 747.052 619.38 748.764 617.266 748.764C615.151 748.764 613.438 747.052 613.438 744.937Z" fill="#A6C8FF"/>
<path d="M613.438 683.696C613.438 681.581 615.151 679.869 617.266 679.869C619.38 679.869 621.094 681.581 621.094 683.696C621.094 685.811 619.38 687.524 617.266 687.524C615.151 687.524 613.438 685.811 613.438 683.696Z" fill="#A6C8FF"/>
<path d="M613.438 622.455C613.438 620.341 615.151 618.628 617.266 618.628C619.38 618.628 621.094 620.341 621.094 622.455C621.094 624.57 619.38 626.283 617.266 626.283C615.151 626.283 613.438 624.57 613.438 622.455Z" fill="#A6C8FF"/>
<path d="M858.43 744.937C858.43 742.822 860.143 741.109 862.258 741.109C864.373 741.109 866.086 742.822 866.086 744.937C866.086 747.052 864.373 748.764 862.258 748.764C860.143 748.764 858.43 747.052 858.43 744.937Z" fill="#A6C8FF"/>
<path d="M797.18 622.455C797.18 620.341 798.893 618.628 801.008 618.628C803.123 618.628 804.836 620.341 804.836 622.455C804.836 624.57 803.123 626.283 801.008 626.283C798.893 626.283 797.18 624.57 797.18 622.455Z" fill="#D2E4FE"/>
<path d="M858.43 806.178C858.43 804.063 860.143 802.35 862.258 802.35C864.373 802.35 866.086 804.063 866.086 806.178C866.086 808.292 864.373 810.005 862.258 810.005C860.143 810.005 858.43 808.292 858.43 806.178Z" fill="#A6C8FF"/>
<path d="M368.445 744.937C368.445 742.822 370.158 741.109 372.273 741.109C374.388 741.109 376.101 742.822 376.101 744.937C376.101 747.052 374.388 748.764 372.273 748.764C370.158 748.764 368.445 747.052 368.445 744.937Z" fill="#A6C8FF"/>
</g>
<rect width="1914" height="910" fill="url(#paint18_linear_17812_65040)"/>
<defs>
<linearGradient id="paint0_linear_17812_65040" x1="1435.5" y1="910" x2="1435.5" y2="0" gradientUnits="userSpaceOnUse">
<stop offset="0.122" stop-color="#16181A"/>
<stop offset="1" stop-color="#17191B"/>
</linearGradient>
<linearGradient id="paint1_linear_17812_65040" x1="1493.63" y1="532.964" x2="1550.08" y2="586.983" gradientUnits="userSpaceOnUse">
<stop stop-color="#A6C8FF" stop-opacity="0"/>
<stop offset="0.087" stop-color="#A6C8FF" stop-opacity="0.044"/>
<stop offset="0.24" stop-color="#A6C8FF" stop-opacity="0.162"/>
<stop offset="0.443" stop-color="#A6C8FF" stop-opacity="0.354"/>
<stop offset="0.686" stop-color="#A6C8FF" stop-opacity="0.619"/>
<stop offset="0.963" stop-color="#A6C8FF" stop-opacity="0.953"/>
<stop offset="1" stop-color="#A6C8FF"/>
</linearGradient>
<linearGradient id="paint2_linear_17812_65040" x1="1652.9" y1="588.769" x2="1597.84" y2="536.081" gradientUnits="userSpaceOnUse">
<stop stop-color="#A6C8FF" stop-opacity="0"/>
<stop offset="0.087" stop-color="#A6C8FF" stop-opacity="0.044"/>
<stop offset="0.24" stop-color="#A6C8FF" stop-opacity="0.162"/>
<stop offset="0.443" stop-color="#A6C8FF" stop-opacity="0.354"/>
<stop offset="0.686" stop-color="#A6C8FF" stop-opacity="0.619"/>
<stop offset="0.963" stop-color="#A6C8FF" stop-opacity="0.953"/>
<stop offset="1" stop-color="#A6C8FF"/>
</linearGradient>
<linearGradient id="paint3_linear_17812_65040" x1="1677.38" y1="754.962" x2="1733.83" y2="808.981" gradientUnits="userSpaceOnUse">
<stop stop-color="#A6C8FF" stop-opacity="0"/>
<stop offset="0.087" stop-color="#A6C8FF" stop-opacity="0.044"/>
<stop offset="0.24" stop-color="#A6C8FF" stop-opacity="0.162"/>
<stop offset="0.443" stop-color="#A6C8FF" stop-opacity="0.354"/>
<stop offset="0.686" stop-color="#A6C8FF" stop-opacity="0.619"/>
<stop offset="0.963" stop-color="#A6C8FF" stop-opacity="0.953"/>
<stop offset="1" stop-color="#A6C8FF"/>
</linearGradient>
<linearGradient id="paint4_linear_17812_65040" x1="1838.64" y1="811.462" x2="1782.2" y2="757.444" gradientUnits="userSpaceOnUse">
<stop stop-color="#A6C8FF" stop-opacity="0"/>
<stop offset="0.087" stop-color="#A6C8FF" stop-opacity="0.044"/>
<stop offset="0.24" stop-color="#A6C8FF" stop-opacity="0.162"/>
<stop offset="0.443" stop-color="#A6C8FF" stop-opacity="0.354"/>
<stop offset="0.686" stop-color="#A6C8FF" stop-opacity="0.619"/>
<stop offset="0.963" stop-color="#A6C8FF" stop-opacity="0.953"/>
<stop offset="1" stop-color="#A6C8FF"/>
</linearGradient>
<linearGradient id="paint5_linear_17812_65040" x1="1809.02" y1="747.657" x2="1852.58" y2="632.021" gradientUnits="userSpaceOnUse">
<stop stop-color="#D0E2FF" stop-opacity="0.1"/>
<stop offset="0.074" stop-color="#C7DCFF" stop-opacity="0.193"/>
<stop offset="0.199" stop-color="#BAD4FF" stop-opacity="0.326"/>
<stop offset="0.318" stop-color="#B1CEFF" stop-opacity="0.422"/>
<stop offset="0.427" stop-color="#ABCBFF" stop-opacity="0.48"/>
<stop offset="0.518" stop-color="#AACAFF" stop-opacity="0.5"/>
<stop offset="0.546" stop-color="#B1CEFF" stop-opacity="0.598"/>
<stop offset="0.589" stop-color="#BAD4FF" stop-opacity="0.721"/>
<stop offset="0.636" stop-color="#C2D9FF" stop-opacity="0.823"/>
<stop offset="0.687" stop-color="#C8DDFF" stop-opacity="0.902"/>
<stop offset="0.746" stop-color="#CCDFFF" stop-opacity="0.958"/>
<stop offset="0.817" stop-color="#CFE1FF" stop-opacity="0.99"/>
<stop offset="0.938" stop-color="#D0E2FF"/>
</linearGradient>
<linearGradient id="paint6_linear_17812_65040" x1="1187.4" y1="716.687" x2="1243.85" y2="770.705" gradientUnits="userSpaceOnUse">
<stop stop-color="#A6C8FF" stop-opacity="0"/>
<stop offset="0.087" stop-color="#A6C8FF" stop-opacity="0.044"/>
<stop offset="0.24" stop-color="#A6C8FF" stop-opacity="0.162"/>
<stop offset="0.443" stop-color="#A6C8FF" stop-opacity="0.354"/>
<stop offset="0.686" stop-color="#A6C8FF" stop-opacity="0.619"/>
<stop offset="0.963" stop-color="#A6C8FF" stop-opacity="0.953"/>
<stop offset="1" stop-color="#A6C8FF"/>
</linearGradient>
<linearGradient id="paint7_linear_17812_65040" x1="1348.66" y1="773.187" x2="1292.21" y2="719.169" gradientUnits="userSpaceOnUse">
<stop stop-color="#A6C8FF" stop-opacity="0"/>
<stop offset="0.087" stop-color="#A6C8FF" stop-opacity="0.044"/>
<stop offset="0.24" stop-color="#A6C8FF" stop-opacity="0.162"/>
<stop offset="0.443" stop-color="#A6C8FF" stop-opacity="0.354"/>
<stop offset="0.686" stop-color="#A6C8FF" stop-opacity="0.619"/>
<stop offset="0.963" stop-color="#A6C8FF" stop-opacity="0.953"/>
<stop offset="1" stop-color="#A6C8FF"/>
</linearGradient>
<linearGradient id="paint8_linear_17812_65040" x1="1379.96" y1="808.307" x2="1424.29" y2="690.628" gradientUnits="userSpaceOnUse">
<stop stop-color="#D0E2FF" stop-opacity="0.1"/>
<stop offset="0.074" stop-color="#C7DCFF" stop-opacity="0.193"/>
<stop offset="0.199" stop-color="#BAD4FF" stop-opacity="0.326"/>
<stop offset="0.318" stop-color="#B1CEFF" stop-opacity="0.422"/>
<stop offset="0.427" stop-color="#ABCBFF" stop-opacity="0.48"/>
<stop offset="0.518" stop-color="#AACAFF" stop-opacity="0.5"/>
<stop offset="0.546" stop-color="#B1CEFF" stop-opacity="0.598"/>
<stop offset="0.589" stop-color="#BAD4FF" stop-opacity="0.721"/>
<stop offset="0.636" stop-color="#C2D9FF" stop-opacity="0.823"/>
<stop offset="0.687" stop-color="#C8DDFF" stop-opacity="0.902"/>
<stop offset="0.746" stop-color="#CCDFFF" stop-opacity="0.958"/>
<stop offset="0.817" stop-color="#CFE1FF" stop-opacity="0.99"/>
<stop offset="0.938" stop-color="#D0E2FF"/>
</linearGradient>
<linearGradient id="paint9_linear_17812_65040" x1="478.5" y1="910" x2="478.5" y2="0" gradientUnits="userSpaceOnUse">
<stop offset="0.122" stop-color="#16181A"/>
<stop offset="1" stop-color="#17191B"/>
</linearGradient>
<linearGradient id="paint10_linear_17812_65040" x1="536.635" y1="532.964" x2="593.08" y2="586.983" gradientUnits="userSpaceOnUse">
<stop stop-color="#A6C8FF" stop-opacity="0"/>
<stop offset="0.087" stop-color="#A6C8FF" stop-opacity="0.044"/>
<stop offset="0.24" stop-color="#A6C8FF" stop-opacity="0.162"/>
<stop offset="0.443" stop-color="#A6C8FF" stop-opacity="0.354"/>
<stop offset="0.686" stop-color="#A6C8FF" stop-opacity="0.619"/>
<stop offset="0.963" stop-color="#A6C8FF" stop-opacity="0.953"/>
<stop offset="1" stop-color="#A6C8FF"/>
</linearGradient>
<linearGradient id="paint11_linear_17812_65040" x1="695.897" y1="588.769" x2="640.841" y2="536.081" gradientUnits="userSpaceOnUse">
<stop stop-color="#A6C8FF" stop-opacity="0"/>
<stop offset="0.087" stop-color="#A6C8FF" stop-opacity="0.044"/>
<stop offset="0.24" stop-color="#A6C8FF" stop-opacity="0.162"/>
<stop offset="0.443" stop-color="#A6C8FF" stop-opacity="0.354"/>
<stop offset="0.686" stop-color="#A6C8FF" stop-opacity="0.619"/>
<stop offset="0.963" stop-color="#A6C8FF" stop-opacity="0.953"/>
<stop offset="1" stop-color="#A6C8FF"/>
</linearGradient>
<linearGradient id="paint12_linear_17812_65040" x1="720.385" y1="754.962" x2="776.83" y2="808.981" gradientUnits="userSpaceOnUse">
<stop stop-color="#A6C8FF" stop-opacity="0"/>
<stop offset="0.087" stop-color="#A6C8FF" stop-opacity="0.044"/>
<stop offset="0.24" stop-color="#A6C8FF" stop-opacity="0.162"/>
<stop offset="0.443" stop-color="#A6C8FF" stop-opacity="0.354"/>
<stop offset="0.686" stop-color="#A6C8FF" stop-opacity="0.619"/>
<stop offset="0.963" stop-color="#A6C8FF" stop-opacity="0.953"/>
<stop offset="1" stop-color="#A6C8FF"/>
</linearGradient>
<linearGradient id="paint13_linear_17812_65040" x1="881.643" y1="811.462" x2="825.197" y2="757.444" gradientUnits="userSpaceOnUse">
<stop stop-color="#A6C8FF" stop-opacity="0"/>
<stop offset="0.087" stop-color="#A6C8FF" stop-opacity="0.044"/>
<stop offset="0.24" stop-color="#A6C8FF" stop-opacity="0.162"/>
<stop offset="0.443" stop-color="#A6C8FF" stop-opacity="0.354"/>
<stop offset="0.686" stop-color="#A6C8FF" stop-opacity="0.619"/>
<stop offset="0.963" stop-color="#A6C8FF" stop-opacity="0.953"/>
<stop offset="1" stop-color="#A6C8FF"/>
</linearGradient>
<linearGradient id="paint14_linear_17812_65040" x1="852.024" y1="747.657" x2="895.579" y2="632.021" gradientUnits="userSpaceOnUse">
<stop stop-color="#D0E2FF" stop-opacity="0.1"/>
<stop offset="0.074" stop-color="#C7DCFF" stop-opacity="0.193"/>
<stop offset="0.199" stop-color="#BAD4FF" stop-opacity="0.326"/>
<stop offset="0.318" stop-color="#B1CEFF" stop-opacity="0.422"/>
<stop offset="0.427" stop-color="#ABCBFF" stop-opacity="0.48"/>
<stop offset="0.518" stop-color="#AACAFF" stop-opacity="0.5"/>
<stop offset="0.546" stop-color="#B1CEFF" stop-opacity="0.598"/>
<stop offset="0.589" stop-color="#BAD4FF" stop-opacity="0.721"/>
<stop offset="0.636" stop-color="#C2D9FF" stop-opacity="0.823"/>
<stop offset="0.687" stop-color="#C8DDFF" stop-opacity="0.902"/>
<stop offset="0.746" stop-color="#CCDFFF" stop-opacity="0.958"/>
<stop offset="0.817" stop-color="#CFE1FF" stop-opacity="0.99"/>
<stop offset="0.938" stop-color="#D0E2FF"/>
</linearGradient>
<linearGradient id="paint15_linear_17812_65040" x1="230.401" y1="716.687" x2="286.846" y2="770.705" gradientUnits="userSpaceOnUse">
<stop stop-color="#A6C8FF" stop-opacity="0"/>
<stop offset="0.087" stop-color="#A6C8FF" stop-opacity="0.044"/>
<stop offset="0.24" stop-color="#A6C8FF" stop-opacity="0.162"/>
<stop offset="0.443" stop-color="#A6C8FF" stop-opacity="0.354"/>
<stop offset="0.686" stop-color="#A6C8FF" stop-opacity="0.619"/>
<stop offset="0.963" stop-color="#A6C8FF" stop-opacity="0.953"/>
<stop offset="1" stop-color="#A6C8FF"/>
</linearGradient>
<linearGradient id="paint16_linear_17812_65040" x1="391.659" y1="773.187" x2="335.213" y2="719.169" gradientUnits="userSpaceOnUse">
<stop stop-color="#A6C8FF" stop-opacity="0"/>
<stop offset="0.087" stop-color="#A6C8FF" stop-opacity="0.044"/>
<stop offset="0.24" stop-color="#A6C8FF" stop-opacity="0.162"/>
<stop offset="0.443" stop-color="#A6C8FF" stop-opacity="0.354"/>
<stop offset="0.686" stop-color="#A6C8FF" stop-opacity="0.619"/>
<stop offset="0.963" stop-color="#A6C8FF" stop-opacity="0.953"/>
<stop offset="1" stop-color="#A6C8FF"/>
</linearGradient>
<linearGradient id="paint17_linear_17812_65040" x1="422.965" y1="808.307" x2="467.288" y2="690.628" gradientUnits="userSpaceOnUse">
<stop stop-color="#D0E2FF" stop-opacity="0.1"/>
<stop offset="0.074" stop-color="#C7DCFF" stop-opacity="0.193"/>
<stop offset="0.199" stop-color="#BAD4FF" stop-opacity="0.326"/>
<stop offset="0.318" stop-color="#B1CEFF" stop-opacity="0.422"/>
<stop offset="0.427" stop-color="#ABCBFF" stop-opacity="0.48"/>
<stop offset="0.518" stop-color="#AACAFF" stop-opacity="0.5"/>
<stop offset="0.546" stop-color="#B1CEFF" stop-opacity="0.598"/>
<stop offset="0.589" stop-color="#BAD4FF" stop-opacity="0.721"/>
<stop offset="0.636" stop-color="#C2D9FF" stop-opacity="0.823"/>
<stop offset="0.687" stop-color="#C8DDFF" stop-opacity="0.902"/>
<stop offset="0.746" stop-color="#CCDFFF" stop-opacity="0.958"/>
<stop offset="0.817" stop-color="#CFE1FF" stop-opacity="0.99"/>
<stop offset="0.938" stop-color="#D0E2FF"/>
</linearGradient>
<linearGradient id="paint18_linear_17812_65040" x1="957" y1="0" x2="957" y2="837.211" gradientUnits="userSpaceOnUse">
<stop stop-color="#17191B"/>
<stop offset="0.65" stop-color="#17191B"/>
<stop offset="1" stop-color="#17191B" stop-opacity="0"/>
</linearGradient>
<clipPath id="clip0_17812_65040">
<rect width="957" height="910" fill="white" transform="translate(957)"/>
</clipPath>
<clipPath id="clip1_17812_65040">
<rect width="957" height="910" fill="white"/>
</clipPath>
</defs>
</svg>
