<?xml version="1.0" encoding="UTF-8"?>
<svg id="illustrations" xmlns="http://www.w3.org/2000/svg" xmlns:xlink="http://www.w3.org/1999/xlink" version="1.1" viewBox="0 0 1312 738">
  <!-- Generator: Adobe Illustrator 29.7.1, SVG Export Plug-In . SVG Version: 2.1.1 Build 8)  -->
  <defs>
    <style>
      .st0, .st1 {
        fill: none;
      }

      .st2 {
        fill: #d9fbfb;
        stroke: #03ddbd;
      }

      .st1 {
        stroke: #adbeaf;
        stroke-miterlimit: 10;
      }

      .st3 {
        clip-path: url(#clippath);
      }
    </style>
    <clipPath id="clippath">
      <rect class="st0" width="1312" height="738"/>
    </clipPath>
  </defs>
  <g id="data_fabric_-_light">
    <g class="st3">
      <g id="uuid-3c823569-064a-40eb-a878-8af5ce6d3831">
        <g>
          <path class="st1" d="M0,162.6h824"/>
          <path class="st1" d="M0,217.7h823.8"/>
          <path class="st1" d="M0,272.6h823.8"/>
          <path class="st1" d="M0,327.5h823.8"/>
          <path class="st1" d="M0,382.5h823.8"/>
          <path class="st1" d="M395.8,0v738"/>
          <path class="st1" d="M456.9,0v738"/>
          <path class="st1" d="M640.3,0v738"/>
          <path class="st1" d="M701.5,0v738"/>
          <path class="st1" d="M762.6,0v738"/>
          <path class="st1" d="M823.8-112.1v850.1"/>
          <path class="st1" d="M0,107.6h824"/>
        </g>
        <g>
          <path class="st1" d="M1247.4,162.4c-84.6-131.2-242.7-219.4-423.6-219.4"/>
          <path class="st1" d="M1247.4,162.4C1162.8-1.6,1004.8-112.1,823.8-112.1"/>
          <path class="st1" d="M1247.4,162.4C1162.8,64.1,1004.7-2,823.8-2"/>
          <path class="st1" d="M1247.4,162.4c-84.6-65.5-242.8-109.5-423.6-109.5"/>
          <path class="st1" d="M1247.4,162.4c-84.6-32.7-242.8-54.6-423.6-54.6"/>
          <line class="st1" x1="1247.4" y1="162.4" x2="823.8" y2="162.6"/>
          <path class="st1" d="M1247.4,162.4c-84.6,32.9-242.7,55.3-423.6,55.3"/>
          <path class="st1" d="M1247.4,162.4c-84.6,65.7-242.7,110.2-423.6,110.2"/>
          <path class="st1" d="M1247.4,162.4c-84.6,98.5-242.7,165.1-423.6,165.1"/>
          <path class="st1" d="M1247.4,162.4c-84.3,163.6-242.7,275-423.6,275"/>
          <path class="st1" d="M1247.4,162.4c-84.3,130.8-242.8,220.1-423.6,220.1"/>
        </g>
        <path class="st2" d="M1254.4,162.5c0,3.9-3.2,7.1-7.1,7.1s-7.1-3.2-7.1-7.1,3.2-7.1,7.1-7.1,7.1,3.2,7.1,7.1Z"/>
        <path class="st2" d="M464.1,107.8c0,3.9-3.2,7.1-7.1,7.1s-7.1-3.2-7.1-7.1,3.2-7.1,7.1-7.1,7.1,3.2,7.1,7.1Z"/>
        <path class="st2" d="M647.5,107.8c0,3.9-3.2,7.1-7.1,7.1s-7.1-3.2-7.1-7.1,3.2-7.1,7.1-7.1,7.1,3.2,7.1,7.1Z"/>
        <path class="st2" d="M464.1,162.6c0,3.9-3.2,7.1-7.1,7.1s-7.1-3.2-7.1-7.1,3.2-7.1,7.1-7.1,7.1,3.2,7.1,7.1Z"/>
        <path class="st2" d="M402.9,162.6c0,3.9-3.2,7.1-7.1,7.1s-7.1-3.2-7.1-7.1,3.2-7.1,7.1-7.1,7.1,3.2,7.1,7.1Z"/>
        <path class="st2" d="M708.6,162.6c0,3.9-3.2,7.1-7.1,7.1s-7.1-3.2-7.1-7.1,3.2-7.1,7.1-7.1,7.1,3.2,7.1,7.1Z"/>
        <path class="st2" d="M464.1,217.7c0,3.9-3.2,7.1-7.1,7.1s-7.1-3.2-7.1-7.1,3.2-7.1,7.1-7.1,7.1,3.2,7.1,7.1Z"/>
        <path class="st2" d="M525.2,217.7c0,3.9-3.2,7.1-7.1,7.1s-7.1-3.2-7.1-7.1,3.2-7.1,7.1-7.1,7.1,3.2,7.1,7.1Z"/>
        <path class="st2" d="M586.3,217.7c0,3.9-3.2,7.1-7.1,7.1s-7.1-3.2-7.1-7.1,3.2-7.1,7.1-7.1,7.1,3.2,7.1,7.1Z"/>
        <path class="st2" d="M647.5,217.7c0,3.9-3.2,7.1-7.1,7.1s-7.1-3.2-7.1-7.1,3.2-7.1,7.1-7.1,7.1,3.2,7.1,7.1Z"/>
        <path class="st2" d="M708.6,217.7c0,3.9-3.2,7.1-7.1,7.1s-7.1-3.2-7.1-7.1,3.2-7.1,7.1-7.1,7.1,3.2,7.1,7.1Z"/>
        <path class="st2" d="M769.8,162.6c0,3.9-3.2,7.1-7.1,7.1s-7.2-3.2-7.2-7.1,3.2-7.1,7.2-7.1,7.1,3.2,7.1,7.1Z"/>
        <path class="st2" d="M964.8,162.6c0,3.9-3.2,7.1-7.1,7.1s-7.1-3.2-7.1-7.1,3.2-7.1,7.1-7.1,7.1,3.2,7.1,7.1Z"/>
        <path class="st2" d="M1075.6,122.5c0,3.9-3.2,7.1-7.1,7.1s-7.1-3.2-7.1-7.1,3.2-7.1,7.1-7.1,7.1,3.2,7.1,7.1Z"/>
        <path class="st2" d="M1167.2,223.7c0,3.9-3.2,7.1-7.1,7.1s-7.1-3.2-7.1-7.1,3.2-7.1,7.1-7.1,7.1,3.2,7.1,7.1Z"/>
        <path class="st2" d="M1129,258c0,3.9-3.2,7.1-7.2,7.1s-7.1-3.2-7.1-7.1,3.2-7.1,7.1-7.1,7.2,3.2,7.2,7.1Z"/>
        <path class="st2" d="M951.4,420.2c0,3.9-3.2,7.1-7.2,7.1s-7.1-3.2-7.1-7.1,3.2-7.1,7.1-7.1,7.2,3.2,7.2,7.1Z"/>
      </g>
    </g>
  </g>
</svg>