<?xml version="1.0" encoding="UTF-8"?>
<svg id="illustrations" xmlns="http://www.w3.org/2000/svg" xmlns:xlink="http://www.w3.org/1999/xlink" version="1.1" viewBox="0 0 1312 738">
  <!-- Generator: Adobe Illustrator 29.7.1, SVG Export Plug-In . SVG Version: 2.1.1 Build 8)  -->
  <defs>
    <style>
      .st0 {
        fill: url(#linear-gradient2);
      }

      .st1 {
        fill: url(#linear-gradient1);
      }

      .st2 {
        fill: url(#linear-gradient3);
      }

      .st3 {
        fill: url(#linear-gradient5);
      }

      .st4 {
        fill: url(#linear-gradient4);
      }

      .st5 {
        fill: url(#linear-gradient);
      }
    </style>
    <linearGradient id="linear-gradient" x1="-53.3" y1="656.5" x2="596.6" y2="656.5" gradientTransform="translate(0 740) scale(1 -1)" gradientUnits="userSpaceOnUse">
      <stop offset="0" stop-color="#e8daff"/>
      <stop offset=".8" stop-color="#bae6ff"/>
      <stop offset="1" stop-color="#f4f4f4"/>
    </linearGradient>
    <linearGradient id="linear-gradient1" x1="-70.7" y1="414.7" x2="431.3" y2="414.7" gradientTransform="translate(0 740) scale(1 -1)" gradientUnits="userSpaceOnUse">
      <stop offset="0" stop-color="#e8daff"/>
      <stop offset=".8" stop-color="#bae6ff"/>
      <stop offset="1" stop-color="#f4f4f4"/>
    </linearGradient>
    <linearGradient id="linear-gradient2" x1="439" y1="418" x2="989.1" y2="418" gradientTransform="translate(0 740) scale(1 -1)" gradientUnits="userSpaceOnUse">
      <stop offset="0" stop-color="#e8daff"/>
      <stop offset=".8" stop-color="#bae6ff"/>
      <stop offset="1" stop-color="#f4f4f4"/>
    </linearGradient>
    <linearGradient id="linear-gradient3" x1="603.4" y1="418" x2="968.3" y2="418" gradientTransform="translate(0 740) scale(1 -1)" gradientUnits="userSpaceOnUse">
      <stop offset="0" stop-color="#e8daff"/>
      <stop offset=".8" stop-color="#bae6ff"/>
      <stop offset="1" stop-color="#f4f4f4"/>
    </linearGradient>
    <linearGradient id="linear-gradient4" x1="937" y1="998" x2="937" y2="258" gradientTransform="translate(0 740) scale(1 -1)" gradientUnits="userSpaceOnUse">
      <stop offset="0" stop-color="#e8daff"/>
      <stop offset=".8" stop-color="#bae6ff"/>
      <stop offset="1" stop-color="#f4f4f4"/>
    </linearGradient>
    <linearGradient id="linear-gradient5" x1="937" y1="838.3" x2="937" y2="313.7" gradientTransform="translate(0 740) scale(1 -1)" gradientUnits="userSpaceOnUse">
      <stop offset="0" stop-color="#e8daff"/>
      <stop offset=".8" stop-color="#bae6ff"/>
      <stop offset="1" stop-color="#f4f4f4"/>
    </linearGradient>
  </defs>
  <g id="wxbia_-_light__x28_outlined_x29_">
    <rect class="st5" y="82.5" width="607.1" height="2"/>
    <rect class="st1" y="324.3" width="439.9" height="2"/>
    <path class="st0" d="M690,573c-67,0-130.1-26.1-177.5-73.5s-73.5-110.4-73.5-177.5,26.1-130.1,73.5-177.5c47.4-47.4,110.4-73.5,177.5-73.5s130.1,26.1,177.5,73.5c47.4,47.4,73.5,110.4,73.5,177.5s-26.1,130.1-73.5,177.5c-47.4,47.4-110.4,73.5-177.5,73.5ZM690,73c-66.5,0-129,25.9-176.1,72.9-47,47-72.9,109.6-72.9,176.1s25.9,129,72.9,176.1c47,47,109.6,72.9,176.1,72.9s129-25.9,176.1-72.9c47-47,72.9-109.6,72.9-176.1s-25.9-129-72.9-176.1c-47-47-109.6-72.9-176.1-72.9Z"/>
    <path class="st2" d="M773,489c-92.1,0-167-74.9-167-167s74.9-167,167-167,167,74.9,167,167-74.9,167-167,167ZM773,157c-91,0-165,74-165,165s74,165,165,165,165-74,165-165-74-165-165-165Z"/>
    <path class="st4" d="M937,404c-88.4,0-171.5-34.4-234.1-96.9-62.5-62.5-96.9-145.6-96.9-234.1s34.4-171.5,96.9-234.1c62.5-62.5,145.6-96.9,234.1-96.9s171.5,34.4,234.1,96.9c62.5,62.5,96.9,145.6,96.9,234.1s-34.4,171.5-96.9,234.1c-62.5,62.5-145.6,96.9-234.1,96.9ZM937-256c-87.9,0-170.5,34.2-232.6,96.4s-96.4,144.8-96.4,232.6,34.2,170.5,96.4,232.6,144.8,96.4,232.6,96.4,170.5-34.2,232.6-96.4c62.1-62.1,96.4-144.8,96.4-232.6s-34.2-170.5-96.4-232.6c-62.1-62.1-144.8-96.4-232.6-96.4Z"/>
    <path class="st3" d="M937,403c-67,0-130.1-26.1-177.5-73.5s-73.5-110.4-73.5-177.5,26.1-130.1,73.5-177.5c47.4-47.4,110.4-73.5,177.5-73.5s130.1,26.1,177.5,73.5,73.5,110.4,73.5,177.5-26.1,130.1-73.5,177.5-110.4,73.5-177.5,73.5ZM937-97c-66.5,0-129,25.9-176.1,72.9-47,47-72.9,109.6-72.9,176.1s25.9,129,72.9,176.1c47,47,109.6,72.9,176.1,72.9s129-25.9,176.1-72.9c47-47,72.9-109.6,72.9-176.1s-25.9-129-72.9-176.1c-47-47-109.6-72.9-176.1-72.9Z"/>
  </g>
</svg>