<?xml version="1.0" encoding="UTF-8"?>
<svg id="illustrations" xmlns="http://www.w3.org/2000/svg" xmlns:xlink="http://www.w3.org/1999/xlink" version="1.1" viewBox="0 0 1312 738">
  <!-- Generator: Adobe Illustrator 29.0.1, SVG Export Plug-In . SVG Version: 2.1.0 Build 192)  -->
  <defs>
    <style>
      .st0, .st1, .st2 {
        fill: none;
      }

      .st1 {
        stroke: #003a6d;
        stroke-miterlimit: 10;
      }

      .st2, .st3 {
        stroke: #491d8b;
      }

      .st4 {
        clip-path: url(#clippath);
      }

      .st5 {
        fill: #161616;
      }

      .st3 {
        fill: #1c0f30;
      }
    </style>
    <clipPath id="clippath">
      <rect class="st0" width="1312" height="738"/>
    </clipPath>
  </defs>
  <rect class="st5" width="1312" height="738"/>
  <g id="watsonx.data_-_dark">
    <g class="st4">
      <g id="watsonx.data_-_dark1">
        <path class="st1" d="M843.1,189.9c0-155.8,126.8-282.1,283.1-282.1"/>
        <path class="st1" d="M843.1,189.9c0,116.9,95.1,211.6,212.4,211.6s212.4-94.7,212.4-211.6-95.1-211.6-212.4-211.6"/>
        <path class="st1" d="M843.1,189.9c0-116.9,95.1-211.6,212.4-211.6"/>
        <path class="st1" d="M843.1,189.9c0,77.9,63.4,141.1,141.6,141.1s141.6-63.2,141.6-141.1-63.4-141.1-141.6-141.1"/>
        <path class="st1" d="M843.1,189.9c0-77.9,63.4-141.1,141.6-141.1"/>
        <path class="st1" d="M843.1,189.9c0,58.4,47.5,105.8,106.2,105.8s106.2-47.4,106.2-105.8-47.5-105.8-106.2-105.8"/>
        <path class="st1" d="M843.1,189.9c0-58.4,47.5-105.8,106.2-105.8"/>
        <path class="st1" d="M843.1,189.9c0,39,31.7,70.5,70.8,70.5s70.8-31.6,70.8-70.5-31.7-70.5-70.8-70.5"/>
        <path class="st1" d="M843.1,189.9c0-39,31.7-70.5,70.8-70.5"/>
        <path class="st1" d="M843.1,189.9c0,19.5,15.8,35.3,35.4,35.3s35.4-15.8,35.4-35.3-15.8-35.3-35.4-35.3"/>
        <path class="st1" d="M843.1,189.9c0-19.5,15.8-35.3,35.4-35.3"/>
        <path class="st1" d="M843.1.4v737.6"/>
        <path class="st1" d="M780.1.4v737.6"/>
        <path class="st1" d="M717.2.4v737.6"/>
        <path class="st1" d="M654.2.4v737.6"/>
        <path class="st1" d="M717.2,62.8H0"/>
        <path class="st1" d="M717.3,311.7H0"/>
        <path class="st1" d="M843.1,62.8h-63.2"/>
        <path class="st1" d="M843.1,125.8H0"/>
        <path class="st1" d="M843.1,188.7H0"/>
        <path class="st1" d="M843.1,251.6H0"/>
        <circle class="st2" cx="1126.3" cy="-83.4" r="8.8"/>
        <circle class="st2" cx="1055.5" cy="-12.9" r="8.8"/>
        <circle class="st2" cx="984.7" cy="57.6" r="8.8"/>
        <path class="st2" d="M949.3,84.1c-4.9,0-8.8,3.9-8.8,8.8s4,8.8,8.8,8.8,8.8-3.9,8.8-8.8-4-8.8-8.8-8.8Z"/>
        <path class="st2" d="M913.9,119.4c-4.9,0-8.8,3.9-8.8,8.8s4,8.8,8.8,8.8,8.8-3.9,8.8-8.8-4-8.8-8.8-8.8Z"/>
        <path class="st2" d="M878.5,154.6c-4.9,0-8.8,3.9-8.8,8.8s4,8.8,8.8,8.8,8.8-3.9,8.8-8.8-4-8.8-8.8-8.8Z"/>
        <path class="st3" d="M677.8,94.3c0,4.3,3.5,7.8,7.9,7.8s7.9-3.5,7.9-7.8-3.5-7.8-7.9-7.8-7.9,3.5-7.9,7.8Z"/>
        <path class="st3" d="M677.8,157.2c0,4.3,3.5,7.8,7.9,7.8s7.9-3.5,7.9-7.8-3.5-7.8-7.9-7.8-7.9,3.5-7.9,7.8Z"/>
        <path class="st3" d="M677.8,220.1c0,4.3,3.5,7.9,7.9,7.9s7.9-3.5,7.9-7.9-3.5-7.8-7.9-7.8-7.9,3.5-7.9,7.8Z"/>
      </g>
    </g>
  </g>
</svg>